<?xml version="1.0" encoding="utf-8" ?>
<svg xmlns="http://www.w3.org/2000/svg" xmlns:xlink="http://www.w3.org/1999/xlink" width="1024" height="1024">
	<path fill="#1A8CB9" d="M734.816 915.882C744.23 914.335 754.299 914.271 763.839 913.369C776.725 912.151 789.699 910.17 802.606 909.474C802.466 909.526 802.326 909.579 802.186 909.63C796.942 911.522 787.682 910.197 784.295 914.872C784.144 916.034 784.077 916.276 784.538 917.334C789.064 919.921 803.045 917.833 809.16 918.534C804.075 919.446 798.52 919.15 793.338 919.305Q781.037 919.713 768.757 920.532C757.379 921.354 746.268 923.973 734.975 925.137C737.783 922.96 741.792 923.826 744.918 921.602C745.555 920.433 745.661 920.348 745.496 919.045C743.254 916.645 738.383 916.806 735.319 916.015L734.816 915.882Z"/>
	<path fill="#0AF0FC" d="M394.844 936.728C400.356 936.454 408.278 936.547 412.909 939.918C414.387 940.995 415.688 942.606 415.714 944.52C415.732 945.938 415.043 947.167 414.084 948.152C409.996 952.348 402.463 952.535 397 952.734C390.649 952.957 382.469 953.51 377.201 949.341C375.886 948.3 374.541 946.722 374.543 944.945C374.545 943.812 375.133 942.666 375.872 941.833C380.026 937.153 389.077 937.05 394.844 936.728Z"/>
	<path fill="#09D5F6" d="M438.124 924.958C456.844 924.765 475.76 925.904 494.5 926.182Q545.551 926.775 596.587 925.429C625.834 924.528 655.014 921.447 684.161 919.057C701.013 917.676 717.935 916.862 734.816 915.882L735.319 916.015C738.383 916.806 743.254 916.645 745.496 919.045C745.661 920.348 745.555 920.433 744.918 921.602C741.792 923.826 737.783 922.96 734.975 925.137C730.292 926.122 725.195 926.304 720.425 926.713C706.195 927.935 691.904 928.052 677.695 929.387C667.399 930.355 657.239 932.477 646.916 933.172C634.175 934.03 621.426 933.485 608.658 934.618C595.955 935.746 583.504 938.493 570.783 939.515C536.437 942.273 495.301 942.368 461.058 939.002C452.316 938.142 443.742 936.422 435.052 935.284C433.125 932.893 429.046 931.356 428.118 928.553C428.338 927.757 428.34 927.325 428.948 926.712C431.059 924.581 435.347 925.093 438.124 924.958Z"/>
	<path fill="#0AF0FC" d="M211.159 321.859C209.349 311.258 209.837 300.31 209.889 289.611C210.026 261.625 208.922 251.875 218.666 224.77C220.913 218.519 223.128 211.888 226.208 205.992C238.484 182.491 254.065 167.017 276.802 153.452C286.591 147.613 297.406 142.431 308.305 139.042C316.88 136.375 325.94 134.433 334.898 133.766C358.399 132.018 382.481 133.055 406.06 133.003Q471.725 132.424 537.39 132.965C593.056 133.045 648.623 132.047 704.284 133.73C724.441 134.339 744.806 134.228 764.876 136.392C780.624 138.09 799.109 143.386 813.185 150.783C824.639 156.802 834.99 163.46 844.461 172.358C865.904 192.504 882.407 224.22 886.433 253.436C889.36 274.68 887.706 297.874 887.482 319.388C887.221 344.387 887.567 369.355 887.732 394.349C887.79 403.118 886.243 430.344 887.781 436.663C888.119 438.05 889.395 439.254 890.448 440.135C893.529 442.711 897.445 444.539 900.792 446.788C907.483 451.285 913.705 456.774 919.291 462.585C933.234 477.088 947.154 499.078 953.003 518.382C956.741 530.719 958.04 542.474 958.051 555.319C958.069 577.404 955.123 590.692 944.7 610.174Q943.792 611.877 942.812 613.54Q941.833 615.202 940.784 616.822Q939.736 618.443 938.619 620.017Q937.503 621.591 936.322 623.117Q935.14 624.643 933.895 626.117Q932.65 627.592 931.344 629.012Q930.038 630.433 928.673 631.797Q927.308 633.161 925.887 634.467Q924.465 635.772 922.99 637.017Q921.515 638.261 919.989 639.442Q918.462 640.622 916.888 641.738Q915.313 642.853 913.692 643.901Q912.072 644.949 910.408 645.928Q908.745 646.906 907.042 647.814Q905.339 648.721 903.599 649.556Q901.859 650.391 900.085 651.151C895.299 653.168 890.211 654.504 885.244 656.002C882.405 676.969 873.238 695.257 860.432 711.929C838.652 740.286 800.111 757.459 765.037 760.687C749.257 762.139 733.217 760.935 717.466 762.962C717.388 766.786 716.991 771.06 717.51 774.846C717.749 776.593 718.173 778.114 719.681 779.212C722.622 781.351 726.933 781.604 730.351 782.68C738.279 785.175 745.871 788.692 752.559 793.635C767.097 804.38 778.278 818.482 782.675 836.278C783.767 840.696 784.175 845.174 784.848 849.664C792.309 851.137 800.141 851.229 807.703 852.138C827.321 854.495 858.644 859.58 876.448 868.408Q879.98 870.201 883.188 872.522Q886.396 874.844 889.203 877.638C891.879 880.34 894.815 883.892 894.648 887.909C894.512 891.169 892.459 894.03 890.164 896.192C877.304 908.306 827.012 918.704 809.16 918.534C803.045 917.833 789.064 919.921 784.538 917.334C784.077 916.276 784.144 916.034 784.295 914.872C787.682 910.197 796.942 911.522 802.186 909.63C802.326 909.579 802.466 909.526 802.606 909.474C817.875 907.462 860.461 900.91 872.091 891.836C873.488 890.746 874.984 889.164 875.011 887.272C875.028 886.082 874.429 885.002 873.666 884.135C863.92 873.057 789.066 863.29 772.296 861.731C772.184 843.451 770.105 829.772 757.755 815.381C743.694 798.994 726.577 792.596 705.626 790.891C703.907 776.5 701.921 761.777 699.172 747.547Q724.678 747.985 750.159 746.778C759.673 746.414 769.257 746.428 778.654 744.707C800.491 740.707 824.111 729.737 840.054 714.078C859.696 694.786 869.844 670.569 870.049 643.126C874.815 642.824 879.564 642.363 884.235 641.339C903.392 637.14 917.377 625.605 927.775 609.342C943.448 584.831 946.015 555.469 939.848 527.493C935.407 507.35 920.855 483.464 906.514 468.56C896.791 458.454 884.851 449.401 873.088 441.832C872.103 424.408 872.504 406.618 872.49 389.155L872.494 303.557C872.484 285.885 874.259 265.548 871.111 248.304C867.737 229.828 859.85 211.506 848.097 196.817C829.654 173.765 801.993 155.721 772.135 152.567C749.118 150.136 725.893 150.681 702.798 149.885C696.042 149.653 689.226 149.675 682.486 149.219C673.548 148.615 664.614 147.508 655.652 147.34C641.133 147.068 626.535 147.487 612.006 147.536L493.485 147.984L389.153 148.111Q370.518 148.059 351.885 148.264C343.331 148.382 334.707 148.287 326.239 149.653C306.832 152.782 286.724 161.949 271.522 174.256C246.726 194.33 229.287 224.414 225.93 256.403C223.964 268.459 224.813 281.444 224.901 293.631C224.966 302.452 224.602 311.554 225.126 320.349C224.99 325.88 224.977 331.445 224.592 336.964Q207.989 337.174 191.385 337.146C173.586 337.062 149.478 336.083 132.531 340.465C121.001 343.446 109.459 349.508 101.068 358.048C82.3098 377.139 81.3631 402.007 81.72 427.162Q81.7874 431.199 81.9408 435.234C69.7091 437.595 61.434 443.971 54.482 454.227C46.1288 466.551 43.184 484.073 45.979 498.605C48.1962 510.133 53.4125 521.757 63.4305 528.431C67.722 531.29 73.3356 532.951 77.2222 536.187C78.2525 537.045 78.9534 537.914 79.6027 539.091C81.9197 543.29 83.3056 548.042 85.3159 552.401C87.8204 557.833 91.039 563.064 94.0156 568.248C100.395 579.358 108.595 590.565 118.337 598.919C138.111 615.878 171.429 626.303 196.943 630.662C206.435 632.283 216.114 632.991 225.697 633.851C225.412 660.264 240.59 692.05 258.881 710.618C281.277 733.352 310.775 747.217 342.795 747.777C340.418 761.984 337.329 776.146 335.869 790.479C316.204 791.234 295.346 799.758 281.876 814.357C270.599 826.579 264.934 842.086 265.674 858.647L265.76 860.407C248.218 861.531 167.187 873.021 158.729 884.236C157.945 885.275 157.697 885.824 158.043 887.089C159.139 891.107 166.769 894.321 170.355 895.781C183.19 901.008 197.333 903.527 210.918 905.86C222.769 907.896 234.659 910.184 246.61 911.519C261.08 913.135 275.73 913.737 290.251 914.862C304.345 915.954 318.41 917.402 332.509 918.45Q345.409 919.324 358.321 919.998C363.285 920.283 369.057 920.224 373.868 921.419C375.302 922.431 375.694 922.705 377.48 922.445C377.691 922.414 377.901 922.372 378.112 922.335L379.064 922.866C379.189 924.29 379.374 925.391 378.73 926.729C375.918 928.375 374.378 925.783 371.988 928.559Q356.777 928.979 341.574 928.325Q326.371 927.671 311.252 925.946C299.15 924.551 287.219 922.211 275.078 921.097C264.156 920.095 253.207 920.278 242.269 919.722C216.195 918.396 177.924 913.8 154.14 903.214C147.136 900.096 140.952 896.276 138.104 888.81C138.488 885.934 139.002 883.339 140.571 880.845C152.902 861.258 207.751 853.844 229.643 850.956C237.457 849.925 245.999 849.776 253.601 847.865L254.265 847.693C255.308 833.621 259.458 823.798 267.266 812.239C271.493 805.98 275.73 801.811 281.686 797.156C295.557 786.314 307.631 783.147 324.537 779.861C323.677 773.396 324.756 767.039 326.245 760.739C299.17 754.138 279.882 746.927 258.084 728.888C233.134 708.241 216.43 679.64 213.378 647.224C200.033 645.473 189.272 642.443 176.398 638.902C164.378 635.595 152.816 632.527 141.333 627.533C134.087 624.382 126.468 620.882 119.818 616.611C108.042 609.048 94.626 596.25 86.4362 585.028C80.6599 577.112 75.7889 568.183 69.2773 560.853C65.0782 556.127 60.1391 552.421 55.5344 548.141C47.4174 540.595 40.0168 529.993 36.0109 519.607C28.6546 500.534 28.2543 473.979 36.6693 455.154C43.8481 439.094 51.8843 431.015 68.2434 424.716C67.7704 420.992 67.3278 417.273 67.2427 413.516C66.707 389.866 73.1505 365.561 89.9919 348.269C113.976 323.644 147.24 322.039 179.323 321.999L211.159 321.859Z"/>
	<path fill="#1F0024" d="M225.93 256.403C229.287 224.414 246.726 194.33 271.522 174.256C286.724 161.949 306.832 152.782 326.239 149.653C334.707 148.287 343.331 148.382 351.885 148.264Q370.518 148.059 389.153 148.111L493.485 147.984L612.006 147.536C626.535 147.487 641.133 147.068 655.652 147.34C664.614 147.508 673.548 148.615 682.486 149.219C689.226 149.675 696.042 149.653 702.798 149.885C725.893 150.681 749.118 150.136 772.135 152.567C801.993 155.721 829.654 173.765 848.097 196.817C859.85 211.506 867.737 229.828 871.111 248.304C874.259 265.548 872.484 285.885 872.494 303.557L872.49 389.155C872.504 406.618 872.103 424.408 873.088 441.832C884.851 449.401 896.791 458.454 906.514 468.56C920.855 483.464 935.407 507.35 939.848 527.493C946.015 555.469 943.448 584.831 927.775 609.342C917.377 625.605 903.392 637.14 884.235 641.339C879.564 642.363 874.815 642.824 870.049 643.126C869.844 670.569 859.696 694.786 840.054 714.078C824.111 729.737 800.491 740.707 778.654 744.707C769.257 746.428 759.673 746.414 750.159 746.778Q724.678 747.985 699.172 747.547C701.921 761.777 703.907 776.5 705.626 790.891C726.577 792.596 743.694 798.994 757.755 815.381C770.105 829.772 772.184 843.451 772.296 861.731C789.066 863.29 863.92 873.057 873.666 884.135C874.429 885.002 875.028 886.082 875.011 887.272C874.984 889.164 873.488 890.746 872.091 891.836C860.461 900.91 817.875 907.462 802.606 909.474C789.699 910.17 776.725 912.151 763.839 913.369C754.299 914.271 744.23 914.335 734.816 915.882C717.935 916.862 701.013 917.676 684.161 919.057C655.014 921.447 625.834 924.528 596.587 925.429Q545.551 926.775 494.5 926.182C475.76 925.904 456.844 924.765 438.124 924.958C435.347 925.093 431.059 924.581 428.948 926.712C428.34 927.325 428.338 927.757 428.118 928.553C429.046 931.356 433.125 932.893 435.052 935.284C426.523 933.769 417.886 931.99 409.26 931.136C404.199 930.635 399.085 930.741 394.008 930.494C386.713 930.138 379.259 929.339 371.988 928.559C374.378 925.783 375.918 928.375 378.73 926.729C379.374 925.391 379.189 924.29 379.064 922.866L378.112 922.335C377.901 922.372 377.691 922.414 377.48 922.445C375.694 922.705 375.302 922.431 373.868 921.419C369.057 920.224 363.285 920.283 358.321 919.998Q345.409 919.324 332.509 918.45C318.41 917.402 304.345 915.954 290.251 914.862C275.73 913.737 261.08 913.135 246.61 911.519C234.659 910.184 222.769 907.896 210.918 905.86C197.333 903.527 183.19 901.008 170.355 895.781C166.769 894.321 159.139 891.107 158.043 887.089C157.697 885.824 157.945 885.275 158.729 884.236C167.187 873.021 248.218 861.531 265.76 860.407L265.674 858.647C264.934 842.086 270.599 826.579 281.876 814.357C295.346 799.758 316.204 791.234 335.869 790.479C337.329 776.146 340.418 761.984 342.795 747.777C310.775 747.217 281.277 733.352 258.881 710.618C240.59 692.05 225.412 660.264 225.697 633.851C216.114 632.991 206.435 632.283 196.943 630.662C171.429 626.303 138.111 615.878 118.337 598.919C108.595 590.565 100.395 579.358 94.0156 568.248C91.039 563.064 87.8204 557.833 85.3159 552.401C83.3056 548.042 81.9197 543.29 79.6027 539.091C78.9534 537.914 78.2525 537.045 77.2222 536.187C73.3356 532.951 67.722 531.29 63.4305 528.431C53.4125 521.757 48.1962 510.133 45.979 498.605C43.184 484.073 46.1288 466.551 54.482 454.227C61.434 443.971 69.7091 437.595 81.9408 435.234Q81.7874 431.199 81.72 427.162C81.3631 402.007 82.3098 377.139 101.068 358.048C109.459 349.508 121.001 343.446 132.531 340.465C149.478 336.083 173.586 337.062 191.385 337.146Q207.989 337.174 224.592 336.964C224.977 331.445 224.99 325.88 225.126 320.349C224.602 311.554 224.966 302.452 224.901 293.631C224.813 281.444 223.964 268.459 225.93 256.403Z"/>
	<path fill="#DA7D12" d="M819.526 623.254C823.365 627.987 827.339 631.342 832.527 634.532C828.763 635.589 821.456 630.658 817.978 628.815C817.781 628.414 817.64 628.195 817.581 627.718C817.379 626.068 818.657 624.539 819.526 623.254Z"/>
	<path fill="#D883BA" d="M588.604 803.948L589.665 804.365C591.733 809.832 591.987 817.016 592.927 822.85L589.535 825.371C589.34 818.162 588.31 811.2 588.604 803.948Z"/>
	<path fill="#C7A5B2" d="M754.07 849.843C754.577 854.046 754.355 858.58 753.34 862.698C752.848 864.304 752.512 865.81 751.367 867.093C748.808 867.34 746.768 869.52 744.507 870.654L744.977 867.503C745.355 864.287 745.559 861.203 745.516 857.964L746.016 858.047C747.721 857.647 750.918 856.864 752.223 855.736C754.192 854.035 753.93 852.207 754.07 849.843Z"/>
	<path fill="#CD96BD" d="M746.016 858.047C746.076 859.918 745.897 860.758 746.939 862.349C748.757 863.431 751.299 862.872 753.34 862.698C752.848 864.304 752.512 865.81 751.367 867.093C748.808 867.34 746.768 869.52 744.507 870.654L744.977 867.503C745.355 864.287 745.559 861.203 745.516 857.964L746.016 858.047Z"/>
	<path fill="#19022F" d="M225.93 256.403C228.063 268.724 227.111 307.006 225.536 319.927L225.126 320.349C224.602 311.554 224.966 302.452 224.901 293.631C224.813 281.444 223.964 268.459 225.93 256.403Z"/>
	<path fill="#FA5961" d="M62.4911 491.451L63.0656 491.283L63.2453 492.047C63.6464 497.517 68.2865 505.676 72.4705 509.216C77.4161 513.399 83.9748 513.864 88.7707 517.63C89.0231 517.828 89.2805 518.02 89.5309 518.221C89.699 518.355 89.8608 518.498 90.0258 518.636C89.6046 518.701 89.1814 518.754 88.7571 518.793C82.7137 519.355 76.774 517.693 72.1429 513.704C65.6863 508.143 63.1893 499.656 62.4911 491.451Z"/>
	<path fill="#671517" d="M778.061 409.079C791.728 408.335 806.266 408.397 819.158 413.612C818.835 413.685 818.514 413.768 818.188 413.832C812.241 415 802.65 410.573 796.23 410.03C793.063 409.762 789.6 411.453 786.628 410.653L785.887 409.997L786.52 409.55C785.009 409.715 784.168 409.636 782.918 410.532C783.357 415.155 790.008 418.006 791.134 423.302Q789.792 422.697 788.521 421.956Q787.25 421.214 786.063 420.343Q784.877 419.472 783.788 418.482Q782.699 417.492 781.72 416.393C780.784 413.848 779.132 411.584 778.061 409.079Z"/>
	<path fill="#A89CF6" d="M710.001 727.128C720.884 726.586 731.27 723.079 741.934 721.014C740.7 724.099 739.982 726.078 740.904 729.385Q732.009 729.169 723.111 729.266C718.916 729.333 714.055 730.002 709.955 729.257L709.526 728.49L710.001 727.128Z"/>
	<path fill="#19022F" d="M322.093 367.554C324.972 368.078 326.974 370.609 328.661 372.958C336.893 384.423 339.25 398.01 340.97 411.698C342.507 423.931 339.808 442.182 339.781 455.335C339.767 462.327 340.832 468.896 341.172 475.799C341.559 483.635 341.161 491.515 341.324 499.358C341.476 506.718 341.888 513.695 340.499 521.002C338.898 529.416 334.354 544.308 326.807 549.164C326.298 549.492 325.736 549.714 325.179 549.942C332.085 541.504 336.321 532.547 338.423 521.834C341.951 503.846 338.661 484.109 338.412 465.847C338.205 450.653 339.092 435.388 338.544 420.209C338.921 414.347 338.817 408.648 338.235 402.802C337.396 397.871 336.279 392.474 334.049 387.968C332.274 380.339 327.104 373.369 322.093 367.554Z"/>
	<path fill="#1A8CB9" d="M373.868 921.419Q397.237 922.455 420.58 923.971C426.255 924.32 432.601 923.897 438.124 924.958C435.347 925.093 431.059 924.581 428.948 926.712C428.34 927.325 428.338 927.757 428.118 928.553C429.046 931.356 433.125 932.893 435.052 935.284C426.523 933.769 417.886 931.99 409.26 931.136C404.199 930.635 399.085 930.741 394.008 930.494C386.713 930.138 379.259 929.339 371.988 928.559C374.378 925.783 375.918 928.375 378.73 926.729C379.374 925.391 379.189 924.29 379.064 922.866L378.112 922.335C377.901 922.372 377.691 922.414 377.48 922.445C375.694 922.705 375.302 922.431 373.868 921.419Z"/>
	<path fill="#D883BA" d="M140.897 594.308C142.028 593.475 142.424 592.878 143.93 593.089C150.834 594.054 158.208 597.276 164.946 599.227C176.33 602.522 188.211 606.142 199.995 607.439C207.591 608.275 215.352 608.062 222.987 608.058C223.056 610.543 223.251 613.031 223.401 615.513C196.276 617.071 164.141 608.601 140.897 594.308Z"/>
	<path fill="#FEFEFD" d="M62.4911 491.451C61.5424 481.723 63.0693 471.632 68.8397 463.511C72.9807 457.683 79.3582 453.132 86.5304 452.121C92.2715 451.311 97.9899 453.001 102.568 456.512C109.687 461.972 112.52 469.99 113.724 478.538C109.218 477.371 98.879 458.256 91.3538 463.115C89.4997 464.313 88.0514 466.163 86.1311 467.259C78.452 471.643 72.143 469.143 67.3383 478.924C65.4295 482.809 65.0925 487.744 63.0656 491.283L62.4911 491.451Z"/>
	<defs>
		<linearGradient id="gradient_0" gradientUnits="userSpaceOnUse" x1="918.6217" y1="590.99011" x2="900.87787" y2="581.4339">
			<stop offset="0" stop-color="#7FA3FF"/>
			<stop offset="1" stop-color="#D5B8D7"/>
		</linearGradient>
	</defs>
	<path fill="url(#gradient_0)" d="M917.296 553.398C917.423 552.435 917.439 551.764 918.01 550.956C919.417 548.965 920.184 546.345 921.737 544.521C922.492 543.635 922.893 543.119 923.361 542.015C925.479 563.489 924.977 589.302 910.513 606.835C904.299 614.367 894.965 621.899 885.381 624.351L884.682 623.687C884.221 621.62 884.593 619.446 884.773 617.354C888.986 615.63 892.684 613.151 896.095 610.155C910.996 597.064 916.111 579.735 917.277 560.444C917.452 558.11 917.331 555.738 917.296 553.398Z"/>
	<path fill="#D883BA" d="M720.392 877.253C728.179 875.374 736.843 869.248 742.228 868.1C743.152 867.902 744.055 867.729 744.977 867.503L744.507 870.654C746.768 869.52 748.808 867.34 751.367 867.093C744.433 878.889 734.156 884.848 721.171 888.267C711.104 890.918 698.69 892.456 688.328 891.069C690.667 890.805 693.06 890.766 695.412 890.638C695.019 890.301 688.313 890.519 687.344 890.5C687.819 887.652 686.459 883.93 685.215 881.423C685.137 881.264 685.055 881.107 684.974 880.95L685.285 881.028L685.274 880.232L683.175 879.473C695.724 879.747 708.072 880.332 720.392 877.253Z"/>
	<path fill="#FA5961" d="M720.392 877.253C728.179 875.374 736.843 869.248 742.228 868.1C743.152 867.902 744.055 867.729 744.977 867.503L744.507 870.654C741.258 874.821 737.735 879.338 732.115 880.032C728.251 880.51 723.754 879.09 720.392 877.253Z"/>
	<defs>
		<linearGradient id="gradient_1" gradientUnits="userSpaceOnUse" x1="780.39246" y1="351.50024" x2="765.52521" y2="351.16635">
			<stop offset="0" stop-color="#E15200"/>
			<stop offset="1" stop-color="#FA7524"/>
		</linearGradient>
	</defs>
	<path fill="url(#gradient_1)" d="M765.945 276.218C768.57 277.757 768.982 279.518 769.712 282.327C771.85 290.544 771.848 299.108 771.926 307.535C771.804 317.389 773.964 327.458 774.494 337.347C775.363 353.547 775.104 369.843 775.721 386.072C775.996 393.283 775.483 401.54 777.835 408.391C777.913 408.62 777.986 408.85 778.061 409.079C779.132 411.584 780.784 413.848 781.72 416.393C780.26 415.935 778.7 415.354 777.266 416.198C775.313 417.346 773.571 419.3 771.074 419.077C769.845 418.968 768.517 417.931 767.503 417.274C766.872 417.537 766.533 417.707 765.991 418.149Q765.604 358.533 765.992 298.92C765.776 291.361 765.915 283.78 765.945 276.218Z"/>
	<path fill="#F4AB28" d="M765.945 276.218C768.57 277.757 768.982 279.518 769.712 282.327C771.85 290.544 771.848 299.108 771.926 307.535C770.673 303.041 770.823 298.463 770.226 293.869C769.726 290.027 768.586 286.147 767.471 282.438C766.919 288.916 767.232 295.679 767.111 302.201L766.923 302.439L766.995 303.064L766.346 302.264C766.313 301.149 766.126 300.028 765.992 298.92C765.776 291.361 765.915 283.78 765.945 276.218Z"/>
	<defs>
		<linearGradient id="gradient_2" gradientUnits="userSpaceOnUse" x1="654.10223" y1="844.66321" x2="614.13873" y2="878.18365">
			<stop offset="0" stop-color="#DB85D7"/>
			<stop offset="1" stop-color="#61AFFF"/>
		</linearGradient>
	</defs>
	<path fill="url(#gradient_2)" d="M589.535 825.371L592.927 822.85C596.756 841.427 605.561 855.652 621.422 866.155C639.787 878.317 662.029 878.019 683.175 879.473L685.274 880.232L685.285 881.028L684.974 880.95C685.055 881.107 685.137 881.264 685.215 881.423C686.459 883.93 687.819 887.652 687.344 890.5C688.313 890.519 695.019 890.301 695.412 890.638C693.06 890.766 690.667 890.805 688.328 891.069C682.447 891.231 676.384 890.432 670.509 889.979C649.323 888.345 625.494 885.613 608.417 871.629C593.151 859.128 591.253 843.76 589.535 825.371Z"/>
	<path fill="#FEFEFD" d="M654.583 824.852C666.068 813.02 682.938 807.14 699.243 806.904C715.427 806.669 729.686 811.471 741.31 822.931C748.668 830.185 753.918 839.286 754.07 849.843C753.93 852.207 754.192 854.035 752.223 855.736C750.918 856.864 747.721 857.647 746.016 858.047C745.485 853.469 744.974 848.893 743.558 844.487C740.52 835.039 733.54 828.103 724.796 823.688C710.548 816.494 691.674 817.31 677.114 823.103C669.97 825.946 663.223 830.074 655.891 832.388C655.677 832.456 655.463 832.518 655.249 832.582C654.771 829.931 654.566 827.545 654.583 824.852Z"/>
	<path fill="#FEFEFD" d="M284.686 862.422C284.047 859.232 283.863 855.865 283.871 852.615C283.902 840.883 288.059 829.9 296.505 821.648C307.545 810.863 324.542 805.5 339.749 805.837C355.59 806.189 373.856 812.481 384.963 824.096C385.234 826.409 385.982 828.883 385.254 831.132C383.941 831.801 383.135 831.471 381.739 831.025C376.352 829.301 371.288 825.82 366.061 823.581C351.18 817.207 331.973 815.942 317.036 822.972C307.441 827.488 298.402 833.683 294.807 844.13C293.675 847.422 291.326 853.793 291.656 857.257C291.373 859.054 291.027 860.528 290.31 862.204L290.07 862.361C288.291 862.16 286.49 862.533 284.686 862.422Z"/>
	<path fill="#F75322" d="M116.278 573.672C124.54 578.379 133.815 581.985 143.16 583.828C155.745 586.311 169.56 585.874 182.374 586.009C195.547 586.148 208.779 586.433 221.944 585.831C222.313 593.217 222.91 600.667 222.987 608.058C215.352 608.062 207.591 608.275 199.995 607.439C188.211 606.142 176.33 602.522 164.946 599.227C158.208 597.276 150.834 594.054 143.93 593.089C142.424 592.878 142.028 593.475 140.897 594.308C131.426 588.541 123.323 582.285 116.278 573.672Z"/>
	<path fill="#F96917" d="M905.329 567.149C907.758 563.742 908.1 559.325 910.43 555.879C911.201 554.737 911.748 554.336 913.06 554.021L914.27 554.782C915.113 554.762 915.591 554.748 916.406 555.012C916.53 555.744 916.625 556.416 916.586 557.162C916.531 558.235 916.406 558.849 916.91 559.864C917.012 560.069 917.155 560.251 917.277 560.444C916.111 579.735 910.996 597.064 896.095 610.155C892.684 613.151 888.986 615.63 884.773 617.354C884.593 619.446 884.221 621.62 884.682 623.687L885.381 624.351C879.68 625.719 873.863 626.601 867.981 626.383C858.966 625.868 846.757 624.759 839.513 618.842Q837.949 617.67 836.554 616.3Q835.159 614.93 833.959 613.387C828.83 606.868 826.375 598.87 827.32 590.611C827.228 596.02 829.314 596.736 831.669 601.095C834.742 604.651 837.566 607.312 841.865 609.414C852.226 612.291 856.834 613.102 867.324 609.2C878.833 604.921 894.965 596.775 899.798 584.559C902.066 578.824 902.688 572.866 905.329 567.149Z"/>
	<path fill="#F75322" d="M827.32 590.611C827.228 596.02 829.314 596.736 831.669 601.095C834.742 604.651 837.566 607.312 841.865 609.414L841.271 609.75C840.39 609.635 839.69 609.671 838.811 609.735L838.793 609.928L839.252 610.26C838.701 610.26 838.499 610.281 837.993 610.218C834.601 609.798 831.842 606.56 829.826 604.065C830.687 606.14 831.559 608.249 832.885 610.078C834.883 612.835 838.535 615.612 839.513 618.842Q837.949 617.67 836.554 616.3Q835.159 614.93 833.959 613.387C828.83 606.868 826.375 598.87 827.32 590.611Z"/>
	<path fill="#D883BA" d="M867.981 626.383L868.141 625.453C873.922 622.626 878.476 619.402 884.773 617.354C884.593 619.446 884.221 621.62 884.682 623.687L885.381 624.351C879.68 625.719 873.863 626.601 867.981 626.383Z"/>
	<defs>
		<linearGradient id="gradient_3" gradientUnits="userSpaceOnUse" x1="789.87561" y1="675.6239" x2="814.30347" y2="709.995">
			<stop offset="0" stop-color="#75A9F5"/>
			<stop offset="1" stop-color="#4AC0FF"/>
		</linearGradient>
	</defs>
	<path fill="url(#gradient_3)" d="M838.693 637.794C843.197 639.573 847.898 641.179 852.277 643.231C852.194 647.989 852.327 652.941 851.613 657.648C849.233 673.343 840.449 688.883 829.158 699.824C802.909 725.259 775.257 728.381 740.904 729.385C739.982 726.078 740.7 724.099 741.934 721.014C770.694 716.235 786.422 714.589 811.148 696.964C827.957 684.982 835.139 665.577 838.436 645.955C839.105 643.044 839.609 640.711 838.693 637.794Z"/>
	<path fill="#FBEB0F" d="M63.0656 491.283C65.0925 487.744 65.4295 482.809 67.3383 478.924C72.143 469.143 78.452 471.643 86.1311 467.259C88.0514 466.163 89.4997 464.313 91.3538 463.115C98.879 458.256 109.218 477.371 113.724 478.538C114.276 481.563 114.393 484.866 114.084 487.927C113.781 494.191 111.572 500.121 107.947 505.225C103.556 511.583 97.3043 516.071 90.0258 518.636C89.8608 518.498 89.699 518.355 89.5309 518.221C89.2805 518.02 89.0231 517.828 88.7707 517.63C83.9748 513.864 77.4161 513.399 72.4705 509.216C68.2865 505.676 63.6464 497.517 63.2453 492.047L63.0656 491.283Z"/>
	<path fill="#DA7D12" d="M101.905 494.576C103.638 492.488 107.046 486.919 109.308 486.016C109.945 488.378 109.776 491.219 109.63 493.65C109.553 494.933 109.728 496.595 108.766 497.46C107.898 496.49 107.997 495.844 107.802 494.599C107.11 495.405 107.214 495.856 107.061 496.882C107.686 498.091 107.903 499.225 109.194 499.756C112.308 496.66 111.158 491.129 113.617 488.406C113.767 488.241 113.928 488.087 114.084 487.927C113.781 494.191 111.572 500.121 107.947 505.225C107.042 504.858 107.461 504.959 106.429 504.845C104.943 504.682 103.635 504.741 102.362 503.864C102.389 500.859 105.876 498.187 105.896 494.984C105.9 494.34 105.845 494.488 105.343 494.025C103.967 493.835 103.195 494.172 101.905 494.576Z"/>
	<path fill="#F96917" d="M63.2453 492.047C66.996 496.429 69.8485 500.877 74.8746 503.963C79.4449 503.881 84.0183 504.016 88.5853 503.922C93.0426 501.97 98.5785 498.151 101.905 494.576C103.195 494.172 103.967 493.835 105.343 494.025C105.845 494.488 105.9 494.34 105.896 494.984C105.876 498.187 102.389 500.859 102.362 503.864C103.635 504.741 104.943 504.682 106.429 504.845C107.461 504.959 107.042 504.858 107.947 505.225C103.556 511.583 97.3043 516.071 90.0258 518.636C89.8608 518.498 89.699 518.355 89.5309 518.221C89.2805 518.02 89.0231 517.828 88.7707 517.63C83.9748 513.864 77.4161 513.399 72.4705 509.216C68.2865 505.676 63.6464 497.517 63.2453 492.047Z"/>
	<path fill="#FABD07" d="M74.8746 503.963C79.4449 503.881 84.0183 504.016 88.5853 503.922C87.4844 504.556 86.324 505.109 85.0913 505.432C81.3586 506.409 78.1784 505.867 74.8746 503.963Z"/>
	<path fill="#6BB0F1" d="M831.651 205.406C841.685 217.029 848.69 232.33 851.809 247.31C854.751 261.437 854.388 276.255 854.309 290.638L853.982 330.48C853.861 362.792 854.715 395.261 853.881 427.551C849.474 425.319 844.721 423.637 840.401 421.333C841.237 391.035 840.165 360.51 840.041 330.187C839.956 309.424 841.041 288.371 840.042 267.654C838.832 250.399 837.502 239.189 829.773 223.507C828.814 217.295 830.427 211.483 831.651 205.406Z"/>
	<defs>
		<linearGradient id="gradient_4" gradientUnits="userSpaceOnUse" x1="220.65271" y1="427.89679" x2="199.45622" y2="341.32965">
			<stop offset="0" stop-color="#BBFEFB"/>
			<stop offset="1" stop-color="white"/>
		</linearGradient>
	</defs>
	<path fill="url(#gradient_4)" d="M98.5106 435.486C98.4676 414.603 95.2773 389.047 109.448 372.022C117.582 362.25 131.421 355.965 143.956 354.949C152.29 354.273 160.74 354.527 169.096 354.514L212.4 354.449L257.582 354.342C270.479 354.198 285.077 352.642 297.723 355.143C306.836 356.946 315.071 361.583 322.093 367.554C327.104 373.369 332.274 380.339 334.049 387.968C336.279 392.474 337.396 397.871 338.235 402.802C336.315 404.56 334.421 406.691 331.957 407.623L330.546 407.524C330.061 406.864 329.826 406.429 329.489 405.651C329.162 401.241 327.477 396.766 326.173 392.558C320.173 380.489 313.092 372.296 299.966 367.933C296.343 366.729 291.753 366.398 287.94 366.27C278.055 365.937 268.061 366.289 258.165 366.341L203.301 366.566L167.576 366.551C160.176 366.543 152.596 366.199 145.237 366.994C139.099 367.657 132.931 370.163 127.557 373.11C117.421 378.668 112.263 387.064 109.17 398.015C105.537 410.883 105.558 424.529 105.45 437.806L98.5106 435.486Z"/>
	<path fill="#A7FCFB" d="M334.049 387.968C336.279 392.474 337.396 397.871 338.235 402.802C336.315 404.56 334.421 406.691 331.957 407.623L330.546 407.524C330.061 406.864 329.826 406.429 329.489 405.651C329.162 401.241 327.477 396.766 326.173 392.558C328.577 394.869 328.367 398.329 330.206 401.046C330.485 401.043 330.77 401.094 331.044 401.038C331.831 400.878 332.83 400.241 333.303 399.594C335.21 396.99 334.689 392.772 333.87 389.886C333.599 388.93 333.754 388.877 334.049 387.968Z"/>
	<defs>
		<linearGradient id="gradient_5" gradientUnits="userSpaceOnUse" x1="236.25171" y1="574.76251" x2="214.03937" y2="430.90909">
			<stop offset="0" stop-color="#009EFF"/>
			<stop offset="1" stop-color="#1EBDFE"/>
		</linearGradient>
	</defs>
	<path fill="url(#gradient_5)" d="M338.235 402.802C338.817 408.648 338.921 414.347 338.544 420.209C339.092 435.388 338.205 450.653 338.412 465.847C338.661 484.109 341.951 503.846 338.423 521.834C336.321 532.547 332.085 541.504 325.179 549.942C321.646 552.445 318.685 556.012 315.052 558.588C309.324 562.65 302.035 565.775 295.082 566.832C285.787 568.246 275.961 567.766 266.578 567.844Q236.786 567.911 206.996 567.612L171.15 567.555C162.092 567.552 152.747 568.057 143.801 566.432C129.186 563.777 116.556 556.852 108.085 544.397C106.126 541.516 101.85 535.695 102.956 532.071C103.927 528.895 108.193 527.584 110.924 526.333C114.29 529.317 115.184 534.646 118.659 538.084C126.117 547.831 135.784 553.743 147.623 556.704C159.57 559.692 173.435 558.493 185.687 558.499Q214.705 558.525 243.72 558.084C257.314 557.957 273.697 559.139 286.994 557.435C293.661 556.581 300.754 553.987 306.536 550.587C321.761 541.633 326.482 528.501 330.618 512.181C332.294 506.297 331.212 498.839 331.25 492.757C331.292 486.036 331.691 479.329 331.664 472.602C331.591 454.204 330.893 435.786 330.468 417.396C330.598 413.558 329.883 409.481 329.489 405.651C329.826 406.429 330.061 406.864 330.546 407.524L331.957 407.623C334.421 406.691 336.315 404.56 338.235 402.802Z"/>
	<path fill="#0AF0FC" d="M338.235 402.802C338.817 408.648 338.921 414.347 338.544 420.209C337.618 417.532 337.833 414.706 337.875 411.915C335.834 412.657 333.761 412.974 331.718 413.661C330.539 415.26 331.218 417.695 331.355 419.665L330.468 417.396C330.598 413.558 329.883 409.481 329.489 405.651C329.826 406.429 330.061 406.864 330.546 407.524L331.957 407.623C334.421 406.691 336.315 404.56 338.235 402.802Z"/>
	<defs>
		<linearGradient id="gradient_6" gradientUnits="userSpaceOnUse" x1="659.53192" y1="877.2254" x2="678.66992" y2="767.40088">
			<stop offset="0" stop-color="#FD7A08"/>
			<stop offset="1" stop-color="#FD5336"/>
		</linearGradient>
	</defs>
	<path fill="url(#gradient_6)" d="M588.604 803.948C589.051 800.02 590.018 797.167 592.439 794.007C605.588 776.847 633.854 768.434 654.429 765.637C662.093 764.595 677.438 763.997 683.667 769.208C687.35 772.289 687.354 783.521 687.655 788.243C687.748 789.698 687.993 790.42 686.991 791.534C686.921 791.322 686.865 791.104 686.781 790.896C686.357 789.842 685.659 789.048 684.51 788.768C679.591 787.567 672.135 791.178 667.222 792.394C650.157 796.617 630.029 798.944 615.704 810.134C612.178 812.888 610.071 816.708 609.577 821.148C608.724 828.798 611.452 837.77 616.254 843.691C631.753 862.799 675.282 869.04 698.679 870.959C710.894 871.961 725.24 870.527 736.043 864.271C739.034 862.539 742.016 858.296 745.516 857.964C745.559 861.203 745.355 864.287 744.977 867.503C744.055 867.729 743.152 867.902 742.228 868.1C736.843 869.248 728.179 875.374 720.392 877.253C708.072 880.332 695.724 879.747 683.175 879.473C662.029 878.019 639.787 878.317 621.422 866.155C605.561 855.652 596.756 841.427 592.927 822.85C591.987 817.016 591.733 809.832 589.665 804.365L588.604 803.948Z"/>
	<path fill="#FBEB0F" d="M715.972 170.871C715.522 169.543 715.223 169.219 715.647 167.904C718.467 166.396 723.596 167.746 726.734 167.849C746.305 168.494 766.844 168.082 785.78 173.879Q787.466 174.404 789.132 174.992Q790.797 175.58 792.439 176.23Q794.081 176.88 795.698 177.591Q797.314 178.302 798.903 179.073Q800.491 179.845 802.05 180.675Q803.609 181.506 805.135 182.394Q806.661 183.282 808.153 184.227Q809.645 185.172 811.1 186.172Q812.556 187.173 813.973 188.227Q815.39 189.281 816.766 190.388Q818.142 191.495 819.476 192.652Q820.81 193.81 822.099 195.016Q823.389 196.223 824.632 197.477Q825.875 198.732 827.07 200.032Q828.266 201.332 829.411 202.676Q830.557 204.02 831.651 205.406C830.427 211.483 828.814 217.295 829.773 223.507C837.502 239.189 838.832 250.399 840.042 267.654L839.235 268.255C837.174 264.134 839.058 253.893 837.46 248.884L837.039 248.861C837.158 247.986 837.051 248.392 837.336 247.637C836.566 248.147 836.427 250.112 836.048 250.066L835.335 248.992L834.984 249.828C834.783 249.816 834.582 249.791 834.38 249.791C833.355 249.79 832.646 250.078 831.693 250.412C821.951 245.751 816.92 246.006 807.656 242.901C802.415 241.145 797.36 238.129 791.877 237.267C781.621 235.654 772.837 238.009 762.916 233.297C761.87 234.935 764.103 244.203 764.619 246.508C765.94 252.407 767.592 262.473 767.107 268.378L766.456 268.871L767.055 268.88L766.663 269.407L765.905 267.325Q765.196 253.129 762.385 239.197C756.807 211.651 739.387 186.389 715.972 170.871Z"/>
	<path fill="#FEFEFD" d="M715.972 170.871C715.522 169.543 715.223 169.219 715.647 167.904C718.467 166.396 723.596 167.746 726.734 167.849C746.305 168.494 766.844 168.082 785.78 173.879Q787.466 174.404 789.132 174.992Q790.797 175.58 792.439 176.23Q794.081 176.88 795.698 177.591Q797.314 178.302 798.903 179.073Q800.491 179.845 802.05 180.675Q803.609 181.506 805.135 182.394Q806.661 183.282 808.153 184.227Q809.645 185.172 811.1 186.172Q812.556 187.173 813.973 188.227Q815.39 189.281 816.766 190.388Q818.142 191.495 819.476 192.652Q820.81 193.81 822.099 195.016Q823.389 196.223 824.632 197.477Q825.875 198.732 827.07 200.032Q828.266 201.332 829.411 202.676Q830.557 204.02 831.651 205.406C830.427 211.483 828.814 217.295 829.773 223.507C822.048 212.164 813.173 201.323 801.407 193.952C789.688 186.611 773.989 181.687 760.234 180.556C752.729 179.939 744.825 180.038 737.488 178.211C731.044 176.606 722.381 169.418 715.972 170.871Z"/>
	<path fill="#FBEB0F" d="M745.516 857.964C742.016 858.296 739.034 862.539 736.043 864.271C725.24 870.527 710.894 871.961 698.679 870.959C675.282 869.04 631.753 862.799 616.254 843.691C611.452 837.77 608.724 828.798 609.577 821.148C610.071 816.708 612.178 812.888 615.704 810.134C630.029 798.944 650.157 796.617 667.222 792.394C672.135 791.178 679.591 787.567 684.51 788.768C685.659 789.048 686.357 789.842 686.781 790.896C686.865 791.104 686.921 791.322 686.991 791.534C671.021 794.666 649.894 804.911 640.46 818.71C639.035 820.794 637.208 823.556 637.64 826.187C637.988 828.306 639.649 830.34 641.394 831.497C642.655 832.333 643.991 832.704 645.491 832.322C648.954 831.438 652.215 827.353 654.583 824.852C654.566 827.545 654.771 829.931 655.249 832.582C655.463 832.518 655.677 832.456 655.891 832.388C663.223 830.074 669.97 825.946 677.114 823.103C691.674 817.31 710.548 816.494 724.796 823.688C733.54 828.103 740.52 835.039 743.558 844.487C744.974 848.893 745.485 853.469 746.016 858.047L745.516 857.964Z"/>
	<path fill="#F96917" d="M746.134 583.363L746.455 582.841C746.57 628.413 750.896 662.333 715.531 698.131C702.045 711.782 679.101 723.89 660.275 727.765C650.45 729.787 640.523 730.072 630.534 730.085L429.265 730.012Q404.19 729.941 379.117 730.296C360.907 730.452 342.072 731.475 324.179 727.678C304.605 723.525 285.617 712.513 271.539 698.374C253.494 680.251 243.768 652.617 243.95 627.212L243.974 624.904C246.026 626.754 248.881 626.438 251.482 626.54C257.997 647.882 265.319 670.855 281.107 687.431C292.977 699.893 311.548 708.565 328.257 712.138C350.135 716.815 376.428 714.551 398.907 714.49C409.403 714.462 419.86 714.954 430.345 715.033C448.923 715.173 467.479 714.925 486.058 715.281C495.386 715.46 504.764 715.061 514.098 714.969Q536.32 714.752 558.542 714.914L606.331 715.043C622.663 715.079 639.492 715.734 655.553 712.321C674.165 708.366 688.96 701.785 702.761 688.438C707.915 683.452 713.264 678.26 717.447 672.425C726.291 660.089 731.093 642.168 731.932 627.081C732.238 621.582 731.609 616.016 731.704 610.49C735.254 608.849 742.416 607.639 744.867 604.801C745.667 603.874 746.131 602.792 746.238 601.565C746.447 599.141 746.02 596.545 745.958 594.1C745.868 590.532 746.036 586.931 746.134 583.363Z"/>
	<defs>
		<linearGradient id="gradient_7" gradientUnits="userSpaceOnUse" x1="715.82281" y1="574.03345" x2="813.88812" y2="693.18054">
			<stop offset="0" stop-color="#FF7715"/>
			<stop offset="1" stop-color="#FF3E32"/>
		</linearGradient>
	</defs>
	<path fill="url(#gradient_7)" d="M766.742 530.261C785.297 533.167 810.593 541.47 824.843 553.501C823.038 556.965 820.528 560.135 818.401 563.417Q816.718 566.038 815.296 568.81Q813.873 571.581 812.725 574.477Q811.577 577.373 810.713 580.366Q809.85 583.359 809.279 586.421C806.64 600.926 811.472 611.493 819.526 623.254C818.657 624.539 817.379 626.068 817.581 627.718C817.64 628.195 817.781 628.414 817.978 628.815C821.456 630.658 828.763 635.589 832.527 634.532C834.566 635.62 836.599 636.823 838.693 637.794C839.609 640.711 839.105 643.044 838.436 645.955C835.139 665.577 827.957 684.982 811.148 696.964C786.422 714.589 770.694 716.235 741.934 721.014C731.27 723.079 720.884 726.586 710.001 727.128C718.304 722.328 724.361 716.021 731.157 709.361C739.785 700.906 746.234 692.364 752.047 681.768C755.668 675.169 759.137 668.1 761.3 660.89C767.751 639.388 766.371 609.911 766.166 587.329C765.994 568.28 766.547 549.3 766.742 530.261Z"/>
	<path fill="#F75322" d="M817.978 628.815C821.456 630.658 828.763 635.589 832.527 634.532C834.566 635.62 836.599 636.823 838.693 637.794C839.609 640.711 839.105 643.044 838.436 645.955C831.347 644.228 823.336 639.31 819.143 633.23C818.065 631.668 817.65 630.647 817.978 628.815Z"/>
	<path fill="#09D5F6" d="M469.446 748.681L571.591 748.436C571.062 761.812 571.867 775.164 572.312 788.531C573.035 810.271 572.787 831.185 578.446 852.406L568.875 852.422Q537.698 852.113 506.52 852.413C491.857 852.495 477.174 852.355 462.521 852.937C463.95 846.488 465.414 840.03 466.087 833.449C467.343 821.17 466.704 808.851 467.279 796.549C468.023 780.636 469.46 764.606 469.446 748.681Z"/>
	<path fill="#FABD07" d="M765.905 267.325L766.663 269.407L767.055 268.88L766.456 268.871L767.107 268.378C767.592 262.473 765.94 252.407 764.619 246.508C764.103 244.203 761.87 234.935 762.916 233.297C772.837 238.009 781.621 235.654 791.877 237.267C797.36 238.129 802.415 241.145 807.656 242.901C816.92 246.006 821.951 245.751 831.693 250.412C832.646 250.078 833.355 249.79 834.38 249.791C834.582 249.791 834.783 249.816 834.984 249.828L835.335 248.992L836.048 250.066C836.427 250.112 836.566 248.147 837.336 247.637C837.051 248.392 837.158 247.986 837.039 248.861L837.46 248.884C839.058 253.893 837.174 264.134 839.235 268.255L840.042 267.654C841.041 288.371 839.956 309.424 840.041 330.187C840.165 360.51 841.237 391.035 840.401 421.333C833.37 418.278 826.622 415.481 819.158 413.612C806.266 408.397 791.728 408.335 778.061 409.079C777.986 408.85 777.913 408.62 777.835 408.391C775.483 401.54 775.996 393.283 775.721 386.072C775.104 369.843 775.363 353.547 774.494 337.347C773.964 327.458 771.804 317.389 771.926 307.535C771.848 299.108 771.85 290.544 769.712 282.327C768.982 279.518 768.57 277.757 765.945 276.218L765.905 267.325Z"/>
	<path fill="#F96917" d="M353.168 784.432C352.948 780.603 353.071 773.94 355.338 770.703C363.561 764.827 388.331 765.625 397.965 767.261C412.768 769.774 440.748 782.961 449.254 795.383C452.021 799.424 451.54 807.965 451.042 812.663C450.811 819.691 450.804 826.963 449.803 833.93C447.831 849.997 441.032 865.87 428.027 876.074C423.6 879.549 418.496 881.667 413.268 883.641C394.054 890.896 388.733 888.364 369.724 889.844C354.782 891.008 342.875 892.567 327.73 890.63C320.853 889.75 312.582 888.92 306.348 885.78C304.428 885.16 302.701 884.346 300.983 883.29C293.661 878.793 286.703 870.844 284.686 862.422C286.49 862.533 288.291 862.16 290.07 862.361L290.31 862.204C291.027 860.528 291.373 859.054 291.656 857.257C291.326 853.793 293.675 847.422 294.807 844.13C298.402 833.683 307.441 827.488 317.036 822.972C331.973 815.942 351.18 817.207 366.061 823.581C371.288 825.82 376.352 829.301 381.739 831.025C383.135 831.471 383.941 831.801 385.254 831.132C385.982 828.883 385.234 826.409 384.963 824.096C387.081 826.445 389.708 829.793 392.711 830.962C394.817 831.782 397.391 831.287 399.382 830.368C400.965 829.636 402.705 828.252 403.11 826.465C403.693 823.884 401.607 820.345 400.166 818.361C389.346 803.462 369.422 794.029 351.665 791.17C352.312 788.953 352.724 786.696 353.168 784.432Z"/>
	<path fill="#CD96BD" d="M443.114 834.141C444.79 830.094 448.424 815.348 449.318 813.95C449.559 813.573 450.638 812.964 451.042 812.663C450.811 819.691 450.804 826.963 449.803 833.93C447.968 833.315 445.357 834.496 443.114 834.141Z"/>
	<path fill="#DA7D12" d="M293.522 866.783C299.45 869.294 306.15 869.489 311.273 873.903C311.071 874.055 310.851 874.187 310.666 874.36C310.56 874.461 310.495 874.598 310.409 874.716C320.625 878.901 343.988 879.465 355.261 878.847C361.508 878.505 368.643 877.05 374.792 878.467C362.021 879.912 346.915 880.691 334.161 879.7C328.482 879.258 322.875 878.189 317.228 877.471C309.209 875.573 301.763 873.403 294.18 870.093L293.522 866.783Z"/>
	<path fill="#D883BA" d="M284.686 862.422C286.49 862.533 288.291 862.16 290.07 862.361C289.046 863.829 288.412 864.332 288.378 866.153C289.419 868.148 292.232 869.059 294.18 870.093C301.763 873.403 309.209 875.573 317.228 877.471C317.063 877.507 316.899 877.546 316.734 877.58C314.968 877.937 313.892 877.811 312.15 877.456C311.297 877.283 311.642 877.312 310.699 877.585C310.576 877.74 310.468 877.909 310.33 878.05C309.301 879.102 302.226 882.283 302.185 882.744L303.439 882.944L303.183 883.373L303.669 883.629C304.802 884.237 305.677 884.624 306.348 885.78C304.428 885.16 302.701 884.346 300.983 883.29C293.661 878.793 286.703 870.844 284.686 862.422Z"/>
	<defs>
		<linearGradient id="gradient_8" gradientUnits="userSpaceOnUse" x1="343.21042" y1="832.88684" x2="414.38779" y2="892.00916">
			<stop offset="0" stop-color="#EB91BF"/>
			<stop offset="1" stop-color="#73B4FF"/>
		</linearGradient>
	</defs>
	<path fill="url(#gradient_8)" d="M443.114 834.141C445.357 834.496 447.968 833.315 449.803 833.93C447.831 849.997 441.032 865.87 428.027 876.074C423.6 879.549 418.496 881.667 413.268 883.641C394.054 890.896 388.733 888.364 369.724 889.844C354.782 891.008 342.875 892.567 327.73 890.63C320.853 889.75 312.582 888.92 306.348 885.78C305.677 884.624 304.802 884.237 303.669 883.629L303.183 883.373L303.439 882.944L302.185 882.744C302.226 882.283 309.301 879.102 310.33 878.05C310.468 877.909 310.576 877.74 310.699 877.585C311.642 877.312 311.297 877.283 312.15 877.456C313.892 877.811 314.968 877.937 316.734 877.58C316.899 877.546 317.063 877.507 317.228 877.471C322.875 878.189 328.482 879.258 334.161 879.7C346.915 880.691 362.021 879.912 374.792 878.467C386.089 879.841 399.243 876.845 409.489 872.234C420.245 867.393 431.251 859.14 437.119 848.707C439.635 844.233 441.271 838.935 443.114 834.141Z"/>
	<defs>
		<linearGradient id="gradient_9" gradientUnits="userSpaceOnUse" x1="380.99139" y1="871.14935" x2="334.88635" y2="797.45856">
			<stop offset="0" stop-color="#FCDD00"/>
			<stop offset="1" stop-color="#FCFC19"/>
		</linearGradient>
	</defs>
	<path fill="url(#gradient_9)" d="M353.168 784.432C359.273 785.9 365.296 788.265 371.373 789.959C387.612 794.487 417.473 800.355 426.682 815.663C430.175 821.471 429.309 827.785 427.642 834.002C425.103 843.473 418.35 849.701 410.057 854.376C394.469 863.162 358.273 871.339 339.996 871.73C329.996 871.943 319.285 870.689 309.652 867.966C304.523 866.516 300.334 863.87 296.182 860.597C294.741 859.461 293.318 858.036 291.656 857.257C291.326 853.793 293.675 847.422 294.807 844.13C298.402 833.683 307.441 827.488 317.036 822.972C331.973 815.942 351.18 817.207 366.061 823.581C371.288 825.82 376.352 829.301 381.739 831.025C383.135 831.471 383.941 831.801 385.254 831.132C385.982 828.883 385.234 826.409 384.963 824.096C387.081 826.445 389.708 829.793 392.711 830.962C394.817 831.782 397.391 831.287 399.382 830.368C400.965 829.636 402.705 828.252 403.11 826.465C403.693 823.884 401.607 820.345 400.166 818.361C389.346 803.462 369.422 794.029 351.665 791.17C352.312 788.953 352.724 786.696 353.168 784.432Z"/>
	<defs>
		<linearGradient id="gradient_10" gradientUnits="userSpaceOnUse" x1="499.74396" y1="486.79425" x2="490.75333" y2="162.25447">
			<stop offset="0" stop-color="#FBFFDE"/>
			<stop offset="1" stop-color="white"/>
		</linearGradient>
	</defs>
	<path fill="url(#gradient_10)" d="M243.964 337.399C244.068 323.436 244.213 309.514 244.052 295.549C243.93 284.955 243.479 274.046 244.189 263.479C245.942 237.393 255.781 213.549 274.567 195.094C307.388 162.85 339.139 165.044 381.183 165.593C402.348 165.87 423.507 165.4 444.672 165.389L575.239 165.393L616.109 165.294C632.944 165.112 650.149 163.909 666.711 167.495C686.722 171.827 703.375 181.207 717.617 195.896C731.229 209.936 739.958 228.158 743.901 247.231C746.522 259.908 745.94 273.351 745.968 286.243L746.059 329.123Q746.592 383.315 746.095 437.508C746.069 449.215 746.641 460.931 746.41 472.637L745.724 472.698C744.921 474.286 745.502 478.012 745.47 479.964L745.074 480.007C742.965 477.061 736.501 474.37 732.984 473.407L732.113 473.172C732.086 470.819 732.039 468.612 731.553 466.294C731.601 464.057 731.408 462.001 731.06 459.793C729.673 414.722 729.917 369.679 729.803 324.596C729.762 308.333 730.009 292.088 729.588 275.828C729.403 268.719 729.406 261.583 728.534 254.514C725.681 231.365 713.091 210.789 694.753 196.602C683.502 187.898 668.806 182.682 654.764 180.995C638.844 179.082 622.104 180.962 606.064 180.943L507.91 180.485Q447.487 180.238 387.066 180.692C369.592 180.786 351.342 178.934 334.006 181.261C313.837 183.967 292.621 195.578 280.244 211.835C258.764 240.049 260.515 259.667 259.796 292.866C259.476 307.606 258.933 322.389 260.934 337.03C255.279 337.495 249.632 337.42 243.964 337.399Z"/>
	<defs>
		<linearGradient id="gradient_11" gradientUnits="userSpaceOnUse" x1="805.30145" y1="597.78076" x2="851.98663" y2="439.63654">
			<stop offset="0" stop-color="#FCC901"/>
			<stop offset="1" stop-color="#FBF90E"/>
		</linearGradient>
	</defs>
	<path fill="url(#gradient_11)" d="M765.991 418.149C766.533 417.707 766.872 417.537 767.503 417.274C768.517 417.931 769.845 418.968 771.074 419.077C773.571 419.3 775.313 417.346 777.266 416.198C778.7 415.354 780.26 415.935 781.72 416.393Q782.699 417.492 783.788 418.482Q784.877 419.472 786.063 420.343Q787.25 421.214 788.521 421.956Q789.792 422.697 791.134 423.302C793.479 424.313 795.808 425.352 798.224 426.184C844.064 441.71 892.193 465.733 914.628 511.166Q915.569 513.076 916.457 515.01Q918.446 519.658 919.844 524.516Q921.242 529.374 922.028 534.368Q922.749 538.182 923.361 542.015C922.893 543.119 922.492 543.635 921.737 544.521C920.184 546.345 919.417 548.965 918.01 550.956C917.439 551.764 917.423 552.435 917.296 553.398C917.331 555.738 917.452 558.11 917.277 560.444C917.155 560.251 917.012 560.069 916.91 559.864C916.406 558.849 916.531 558.235 916.586 557.162C916.625 556.416 916.53 555.744 916.406 555.012C915.591 554.748 915.113 554.762 914.27 554.782L913.06 554.021C911.748 554.336 911.201 554.737 910.43 555.879C908.1 559.325 907.758 563.742 905.329 567.149C902.688 572.866 902.066 578.824 899.798 584.559C894.965 596.775 878.833 604.921 867.324 609.2C856.834 613.102 852.226 612.291 841.865 609.414C837.566 607.312 834.742 604.651 831.669 601.095C829.314 596.736 827.228 596.02 827.32 590.611C828.013 583.719 830.073 577.891 834.453 572.481C837.606 572.465 840.786 572.804 843.931 573.036C844.042 569.617 843.968 566.181 843.958 562.76C843.155 557.111 841.89 552.189 839.189 547.124C837.388 543.965 835.544 540.615 832.654 538.31C819.47 527.797 782.117 518.615 764.931 513.822C765.662 505.656 765.379 497.444 765.899 489.263L765.991 418.149Z"/>
	<path fill="#DA7D12" d="M843.833 539.985C846.685 543.765 849.746 549.352 850.956 553.989L850.741 554.619C849.282 554.139 848.15 552.919 846.881 552.038L846.872 551.422L848.554 551.964L849.032 551.439C848.448 549.388 847.539 547.338 845.612 546.231C844.384 546.54 844.186 546.738 843.258 547.62C841.396 552.273 844.752 557.585 843.958 562.76C843.155 557.111 841.89 552.189 839.189 547.124C839.459 545.622 839.639 543.658 840.337 542.297C841.036 540.935 842.501 540.475 843.833 539.985Z"/>
	<path fill="#DA7D12" d="M905.329 567.149C908.006 558.922 911.48 549.442 912.424 540.855C912.793 537.491 911.521 534.011 912.058 530.672L913.002 530.064C914.88 535.354 915.784 540.893 916.73 546.412L917.296 553.398C917.331 555.738 917.452 558.11 917.277 560.444C917.155 560.251 917.012 560.069 916.91 559.864C916.406 558.849 916.531 558.235 916.586 557.162C916.625 556.416 916.53 555.744 916.406 555.012C915.591 554.748 915.113 554.762 914.27 554.782L913.06 554.021C911.748 554.336 911.201 554.737 910.43 555.879C908.1 559.325 907.758 563.742 905.329 567.149Z"/>
	<path fill="#FCF77A" d="M905.9 514.393C909.477 514.116 912.847 515.286 916.457 515.01Q918.446 519.658 919.844 524.516Q921.242 529.374 922.028 534.368Q922.749 538.182 923.361 542.015C922.893 543.119 922.492 543.635 921.737 544.521C920.184 546.345 919.417 548.965 918.01 550.956C917.439 551.764 917.423 552.435 917.296 553.398L916.73 546.412C915.784 540.893 914.88 535.354 913.002 530.064C911.829 524.538 908.605 519.29 905.9 514.393Z"/>
	<path fill="#DFCBC7" d="M916.73 546.412C920.735 543.654 919.29 538.303 922.028 534.368Q922.749 538.182 923.361 542.015C922.893 543.119 922.492 543.635 921.737 544.521C920.184 546.345 919.417 548.965 918.01 550.956C917.439 551.764 917.423 552.435 917.296 553.398L916.73 546.412Z"/>
	<path fill="#F75322" d="M764.931 513.822C765.662 505.656 765.379 497.444 765.899 489.263C766.061 493.875 765.959 498.453 765.83 503.062C791.655 505.721 822.658 513.089 839.703 534.24C841.185 536.079 842.514 538.029 843.833 539.985C842.501 540.475 841.036 540.935 840.337 542.297C839.639 543.658 839.459 545.622 839.189 547.124C837.388 543.965 835.544 540.615 832.654 538.31C819.47 527.797 782.117 518.615 764.931 513.822Z"/>
	<defs>
		<linearGradient id="gradient_12" gradientUnits="userSpaceOnUse" x1="851.06506" y1="481.58109" x2="864.71088" y2="457.1618">
			<stop offset="0" stop-color="#FCFFDC"/>
			<stop offset="1" stop-color="white"/>
		</linearGradient>
	</defs>
	<path fill="url(#gradient_12)" d="M798.224 426.184C844.064 441.71 892.193 465.733 914.628 511.166Q915.569 513.076 916.457 515.01C912.847 515.286 909.477 514.116 905.9 514.393C901.998 508.2 896.746 502.524 891.818 497.127C884.3 488.894 876.256 481.128 867.201 474.581C862.869 471.448 857.987 468.917 853.334 466.284C834.939 455.872 816.883 448.632 797.519 440.445C796.958 435.691 796.922 430.825 798.224 426.184Z"/>
	<defs>
		<linearGradient id="gradient_13" gradientUnits="userSpaceOnUse" x1="258.05234" y1="564.8783" x2="191.56064" y2="352.39584">
			<stop offset="0" stop-color="#016FFD"/>
			<stop offset="1" stop-color="#01BAFD"/>
		</linearGradient>
	</defs>
	<path fill="url(#gradient_13)" d="M105.45 437.806C105.558 424.529 105.537 410.883 109.17 398.015C112.263 387.064 117.421 378.668 127.557 373.11C132.931 370.163 139.099 367.657 145.237 366.994C152.596 366.199 160.176 366.543 167.576 366.551L203.301 366.566L258.165 366.341C268.061 366.289 278.055 365.937 287.94 366.27C291.753 366.398 296.343 366.729 299.966 367.933C313.092 372.296 320.173 380.489 326.173 392.558C327.477 396.766 329.162 401.241 329.489 405.651C329.883 409.481 330.598 413.558 330.468 417.396C330.893 435.786 331.591 454.204 331.664 472.602C331.691 479.329 331.292 486.036 331.25 492.757C331.212 498.839 332.294 506.297 330.618 512.181C326.482 528.501 321.761 541.633 306.536 550.587C300.754 553.987 293.661 556.581 286.994 557.435C273.697 559.139 257.314 557.957 243.72 558.084Q214.705 558.525 185.687 558.499C173.435 558.493 159.57 559.692 147.623 556.704C135.784 553.743 126.117 547.831 118.659 538.084C115.184 534.646 114.29 529.317 110.924 526.333C120.883 519.359 126.569 505.981 131.161 495.138C133.088 489.209 133.531 483.127 133.385 476.932C133.05 472.91 132.621 468.978 131.914 465.003C129.168 457.09 125.013 451.96 118.964 446.307C114.722 442.958 110.228 440.314 105.45 437.806Z"/>
	<path fill="#A7FCFB" d="M131.914 465.003C133.82 463.812 134.573 462.462 135.406 460.454C135.188 464.959 135.623 469.168 136.601 473.569C135.418 474.642 134.35 475.654 133.385 476.932C133.05 472.91 132.621 468.978 131.914 465.003Z"/>
	<path fill="#FEFEFD" d="M136.601 473.569C138.471 478.677 140.994 481.957 146.07 484.385C152.45 487.438 159.603 487.386 166.132 484.856C170.115 483.312 173.328 481.021 176.353 478.01C179.791 480.658 186.029 484.485 187.05 488.894C187.351 490.19 186.932 491.292 186.226 492.366C182.28 498.369 166.788 503.465 159.779 504.258C150.655 505.29 141.825 502.688 133.547 498.877C132.233 497.628 131.663 496.892 131.161 495.138C133.088 489.209 133.531 483.127 133.385 476.932C134.35 475.654 135.418 474.642 136.601 473.569Z"/>
	<path fill="#FEFEFD" d="M118.964 446.307C120.998 438.051 127.595 430.851 134.782 426.507C144.722 420.496 157.59 418.857 168.818 421.716C175.165 423.333 182.387 426.541 187.322 430.91C184.393 435.384 181.533 440.144 177.96 444.134C170.463 439.185 162.202 435.536 153.002 437.529Q152.465 437.651 151.935 437.799Q151.405 437.947 150.882 438.121Q150.36 438.295 149.847 438.495Q149.335 438.695 148.832 438.92Q148.33 439.145 147.839 439.395Q147.349 439.645 146.871 439.919Q146.394 440.193 145.931 440.49Q145.467 440.788 145.019 441.108Q144.571 441.428 144.14 441.769Q143.708 442.111 143.294 442.474Q142.88 442.837 142.485 443.22Q142.089 443.603 141.713 444.005Q141.338 444.407 140.982 444.827Q140.627 445.248 140.292 445.685Q139.958 446.122 139.646 446.576Q139.334 447.03 139.045 447.498C136.456 451.642 135.735 455.69 135.406 460.454C134.573 462.462 133.82 463.812 131.914 465.003C129.168 457.09 125.013 451.96 118.964 446.307Z"/>
	<path fill="#FEFEFD" d="M286.416 420.185Q288.523 420.018 290.636 420.015C302.145 420.029 311.477 423.133 319.691 431.323C316.987 435.058 314.324 438.819 311.365 442.359C305.76 439.991 298.076 435.828 291.996 435.791C288.133 435.768 283.672 436.85 280.899 439.711C279.753 440.892 278.955 442.769 279.191 444.436C280.151 451.236 298.831 456.001 304.385 458.356C307.919 459.854 311.446 461.669 314.394 464.158C318.21 467.378 320.561 471.53 320.918 476.549C321.362 482.795 318.691 490.22 314.392 494.832C307.88 501.819 297.22 504.784 287.962 505.03C274.486 503.91 267.394 500.405 257.846 490.952C261.336 487.27 264.589 483.547 267.476 479.367C274.667 484.529 281.017 489.827 290.496 489.073C294.607 488.745 298.069 487.326 300.7 484.074C301.76 482.764 302.338 481.408 302.084 479.688C301.107 473.093 285.878 469.517 280.567 467.252C276.692 465.6 272.817 463.658 269.403 461.173C264.688 457.742 260.734 452.925 259.985 446.976C259.268 441.279 261.615 434.988 265.146 430.545C270.356 423.99 278.392 421.173 286.416 420.185Z"/>
	<path fill="#FEFEFD" d="M219.635 420.184C232.352 418.906 243.02 422.982 253.33 430.116C249.213 433.493 246.179 438.04 242.991 442.261C238.142 439.717 233.538 437.04 228.032 436.218C223.572 435.551 217.624 435.573 213.94 438.429C212.612 439.459 211.454 441.2 211.464 442.938C211.505 450.081 239.027 457.217 245.57 462.807C249.741 466.37 252.508 471.356 252.914 476.86C253.381 483.191 250.957 490.154 246.766 494.944C240.443 502.171 232.01 504.655 222.739 505.101C218.582 505.012 214.375 504.596 210.334 503.591C202.426 501.626 195.63 497.523 191.339 490.427C194.778 486.867 197.488 483.158 200.104 478.959C206.887 484.672 213.245 488.699 222.518 488.541C226.475 488.474 229.889 487.355 232.633 484.393C233.873 483.054 235.106 481.271 234.764 479.34C233.535 472.397 209.358 466.422 202.021 461.291C197.345 458.021 193.88 453.163 193.098 447.434C192.384 442.199 193.978 434.978 197.232 430.774C202.486 423.988 211.44 421.12 219.635 420.184Z"/>
	<path fill="#0049FA" d="M131.161 495.138C131.663 496.892 132.233 497.628 133.547 498.877C133.307 509.889 129.292 518.698 124.087 528.189C125.149 529.234 126.239 530.244 127.454 531.111C133.308 535.289 142.036 538.92 149.154 540.061C166.191 542.791 184.641 540.712 201.862 540.64L241.89 540.333C255.796 540.331 269.542 540.925 283.349 538.738C291.912 537.382 298.863 533.489 306.304 529.266C308.574 527.978 311.328 526.8 313.302 525.088C316.282 522.505 318.53 519.193 320.829 516.022L321.127 516.929C321.976 516.707 321.787 516.858 322.368 516.406C323.508 515.519 324.608 514.669 325.788 513.829L326.049 513.26L326.131 514.344C324.78 516.467 322.294 518.962 320.186 520.338C310.424 526.711 301.668 535.329 289.859 538.085C289.737 538.113 289.613 538.136 289.491 538.161C289.856 541.574 292.614 545.562 294.47 548.39C295.169 548.731 295.09 548.707 295.962 549.039C298.176 549.882 302.865 551.497 304.999 550.383C305.172 550.293 305.338 550.19 305.509 550.098Q307.065 549.273 308.545 548.317Q310.025 547.361 311.417 546.281Q312.809 545.201 314.103 544.006Q315.397 542.81 316.583 541.508C323.889 533.519 325.381 526.989 328.322 517.028C328.922 514.997 330.184 512.583 330.025 510.45C329.944 509.36 329.862 509.72 330.035 508.767C330.061 508.622 330.105 508.481 330.14 508.338L329.475 508.48L330.69 508.852C330.511 509.697 330.472 510.392 330.539 511.246L330.618 512.181C326.482 528.501 321.761 541.633 306.536 550.587C300.754 553.987 293.661 556.581 286.994 557.435C273.697 559.139 257.314 557.957 243.72 558.084Q214.705 558.525 185.687 558.499C173.435 558.493 159.57 559.692 147.623 556.704C135.784 553.743 126.117 547.831 118.659 538.084C115.184 534.646 114.29 529.317 110.924 526.333C120.883 519.359 126.569 505.981 131.161 495.138Z"/>
	<defs>
		<linearGradient id="gradient_14" gradientUnits="userSpaceOnUse" x1="510.28754" y1="724.19476" x2="464.6745" y2="170.97325">
			<stop offset="0" stop-color="#FBCB02"/>
			<stop offset="1" stop-color="#FBFC0B"/>
		</linearGradient>
	</defs>
	<path fill="url(#gradient_14)" d="M260.934 337.03C258.933 322.389 259.476 307.606 259.796 292.866C260.515 259.667 258.764 240.049 280.244 211.835C292.621 195.578 313.837 183.967 334.006 181.261C351.342 178.934 369.592 180.786 387.066 180.692Q447.488 180.238 507.91 180.485L606.064 180.943C622.104 180.962 638.844 179.082 654.764 180.995C668.806 182.682 683.502 187.898 694.753 196.602C713.091 210.789 725.681 231.365 728.534 254.514C729.406 261.583 729.403 268.719 729.588 275.828C730.009 292.088 729.762 308.333 729.803 324.596C729.917 369.679 729.673 414.722 731.06 459.793C731.408 462.001 731.601 464.057 731.553 466.294C732.039 468.612 732.086 470.819 732.113 473.172L732.984 473.407C736.501 474.37 742.965 477.061 745.074 480.007L745.47 479.964C745.502 478.012 744.921 474.286 745.724 472.698L746.41 472.637C746.657 481.292 746.263 489.992 745.983 498.645C746.378 515.539 746.05 532.541 746.065 549.442C746.076 560.576 746.476 571.705 746.455 582.841L746.134 583.363C746.036 586.931 745.868 590.532 745.958 594.1C746.02 596.545 746.447 599.141 746.238 601.565C746.131 602.792 745.667 603.874 744.867 604.801C742.416 607.639 735.254 608.849 731.704 610.49C731.609 616.016 732.238 621.582 731.932 627.081C731.093 642.168 726.291 660.089 717.447 672.425C713.264 678.26 707.915 683.452 702.761 688.438C688.96 701.785 674.165 708.366 655.553 712.321C639.492 715.734 622.663 715.079 606.331 715.043L558.542 714.914Q536.32 714.752 514.098 714.969C504.764 715.061 495.386 715.46 486.058 715.281C467.479 714.925 448.923 715.173 430.345 715.033C419.86 714.954 409.403 714.462 398.907 714.49C376.428 714.551 350.135 716.815 328.257 712.138C311.548 708.565 292.977 699.893 281.107 687.431C265.319 670.855 257.997 647.882 251.482 626.54C248.881 626.438 246.026 626.754 243.974 624.904L243.958 621.977C243.328 609.989 243.513 597.956 243.551 585.956C257.124 586.66 281.111 586.853 294.288 584.939C313.29 582.179 331.047 571.094 342.454 555.734Q343.673 554.083 344.794 552.365Q345.915 550.646 346.935 548.866Q347.954 547.085 348.869 545.249Q349.784 543.412 350.591 541.526Q351.398 539.639 352.094 537.709Q352.79 535.779 353.374 533.812Q353.957 531.845 354.426 529.847Q354.894 527.849 355.246 525.828C358.703 506.211 356.251 481.82 356.361 461.536L356.807 423.997C356.903 414.651 357.268 404.831 355.88 395.572C354.892 391.128 353.491 386.878 352.053 382.567C347.991 372.578 342.025 363.256 334.079 355.92C313.303 336.736 287.687 335.87 260.934 337.03Z"/>
	<path fill="#FABD07" d="M352.053 382.567C355.848 383.425 357.812 387.94 359.808 391.1C360.182 391.693 360.548 392.285 360.897 392.893C358.935 393.525 357.558 394.388 355.88 395.572C354.892 391.128 353.491 386.878 352.053 382.567Z"/>
	<path fill="#F96917" d="M612.506 606.119L613.001 605.857C613.161 609.921 612.057 614.304 609.152 617.308C608.265 618.225 607.225 619.175 606.116 619.811C602.937 620.839 600.675 621.806 597.378 620.638C606.129 617.327 606.69 612.927 612.165 606.51C612.277 606.378 612.392 606.249 612.506 606.119Z"/>
	<path fill="#FCF77A" d="M494.754 520.852C493.933 516.931 493.477 512.275 494.92 508.485C496.254 507.44 496.907 507.731 498.564 507.766C498.971 511.892 499.533 515.867 500.423 519.918C498.812 519.937 496.24 519.567 494.965 520.582C494.876 520.653 494.825 520.762 494.754 520.852Z"/>
	<path fill="#F4AB28" d="M334.341 604.736C334.066 606.58 334.121 607.466 334.632 609.235C334.755 609.661 334.837 610.098 334.934 610.53Q329.716 615.229 325.16 620.572L322.079 620.963C324.561 616.878 326.728 612.571 328.991 608.36C330.817 607.234 332.569 605.948 334.341 604.736Z"/>
	<path fill="#DA7D12" d="M322.079 620.963L325.16 620.572C319.06 628.815 315.383 638.699 308.531 646.445L307.793 645.481C308.902 638.651 318.282 627.716 321.847 621.387C321.926 621.247 322.002 621.105 322.079 620.963Z"/>
	<path fill="#FABD07" d="M399.922 489.832C401.198 492.61 401.127 494.986 401.903 497.802Q402.1 518.114 402.773 538.415L402.326 538.35C401.295 537.271 401.759 533.936 401.751 532.362C400.928 534.593 401.452 539.498 401.387 542.034C399.298 530.521 400.642 518.799 400.524 507.223C400.464 501.418 399.556 495.64 399.922 489.832Z"/>
	<path fill="#FABD07" d="M679.86 581.754C682.216 588.083 685.559 593.292 685.565 600.153C683.665 600.087 679.697 599.294 678.301 597.987C678.104 595.51 677.72 593.073 677.341 590.619C677.864 587.65 678.996 584.656 679.86 581.754Z"/>
	<path fill="#FABD07" d="M405.567 429.318C406.311 430.683 407.155 431.556 408.256 432.649C408.861 433.25 408.621 432.969 409.092 433.644C404.802 437.973 401.967 442.075 401.155 448.317C400.632 451.421 399.98 454.617 399.036 457.623C398.981 454.143 400.684 450.352 400.227 447.105L399.201 447.951L398.644 447.483C398.434 446.144 398.218 444.786 398.254 443.427C398.408 437.741 401.67 433.169 405.567 429.318Z"/>
	<path fill="#FABD07" d="M732.076 577.019C731.876 578.176 731.881 579.441 731.796 580.617C730.725 578.902 731.386 572.632 731.254 570.257C731.252 573.282 731.013 576.229 730.728 579.237C730.495 570.263 728.059 528.254 730.589 523.49L731.505 523.862L732.076 577.019Z"/>
	<path fill="#F4AB28" d="M401.155 448.317C402.364 464.516 402.386 481.549 401.903 497.802C401.127 494.986 401.198 492.61 399.922 489.832C399.899 479.092 398.942 468.39 399.036 457.623C399.98 454.617 400.632 451.421 401.155 448.317Z"/>
	<path fill="#F4AB28" d="M499.757 493.392C498.647 490.967 498.299 488.894 498.437 486.215C499.147 472.453 511.119 455.995 520.797 446.979C519.448 451.467 509.774 459.422 507.558 466.487L507.955 467.007C510.486 464.435 512.652 457.54 516.311 456.773C507.698 468.282 502.805 479.32 499.757 493.392Z"/>
	<defs>
		<linearGradient id="gradient_15" gradientUnits="userSpaceOnUse" x1="680.7226" y1="600.87537" x2="681.97882" y2="613.19629">
			<stop offset="0" stop-color="#F2D668"/>
			<stop offset="1" stop-color="#F8F19A"/>
		</linearGradient>
	</defs>
	<path fill="url(#gradient_15)" d="M678.301 597.987C679.697 599.294 683.665 600.087 685.565 600.153C685.238 609.36 684.315 618.173 681.959 627.111C681.843 626.806 681.719 626.504 681.611 626.196C680.676 623.534 683.903 617.095 682.104 615.951C678.838 619.506 678.084 625.854 674.383 628.683C677.716 617.938 679.029 609.285 678.301 597.987Z"/>
	<path fill="#FABD07" d="M490.852 646.991C490.805 643.104 489.913 639.739 491.255 635.886C494.111 627.68 512.733 603.014 520.141 599.333L519.43 602.39C516.933 603.798 515.095 605.698 513.306 607.902C508.576 613.733 493.361 637.963 491.699 644.607C491.415 645.746 491.413 646.882 491.413 648.048L490.852 646.991Z"/>
	<path fill="#FCF77A" d="M433.494 352.673C436.909 362.033 441.719 369.105 448.41 376.443C446.56 375.682 445.75 375.526 443.8 376.036C442.819 377.059 442.775 377.277 442.471 378.674L443.427 381.41C436.518 376.362 431.832 364.139 429.002 356.432C430.396 354.963 431.847 353.847 433.494 352.673Z"/>
	<path fill="#F96917" d="M526.174 596.508C533.195 599.39 539.166 603.375 545.537 607.409C555.659 613.817 565.134 618.644 576.814 621.531C574.145 623.593 571.291 621.779 569.051 623.463C561.833 621.075 554.435 618.523 548.014 614.365C541.919 610.418 535.948 605.223 529.359 602.172C525.336 600.309 523.403 600.942 519.43 602.39L520.141 599.333C522.125 598.228 524.041 597.29 526.174 596.508Z"/>
	<path fill="#F96917" d="M649.078 538.122C666.086 548.588 673.831 563.334 679.86 581.754C678.996 584.656 677.864 587.65 677.341 590.619C673.373 570.248 664.175 555.797 648.102 542.718C649.391 542.596 650.221 543.164 651.322 543.744L651.83 544.017Q650.091 541.363 648.293 538.748L649.078 538.122Z"/>
	<path fill="#F96917" d="M334.341 604.736C336.659 602.576 338.363 600.949 341.723 601.147C352.51 601.781 360.749 617.521 379.174 618.102C383.782 618.247 388.138 617.232 391.741 614.231C393.813 612.505 395.536 610.339 397.403 608.4C398.166 608.967 398.926 609.61 399.736 610.104C397.259 615.337 394.075 619.934 388.334 621.907C380.581 624.571 370.175 623.382 362.937 619.671C355.436 615.826 349.387 608.915 341.522 605.964C339.201 607.384 337.044 608.8 334.934 610.53C334.837 610.098 334.755 609.661 334.632 609.235C334.121 607.466 334.066 606.58 334.341 604.736Z"/>
	<defs>
		<linearGradient id="gradient_16" gradientUnits="userSpaceOnUse" x1="432.83942" y1="418.26721" x2="441.89084" y2="448.18823">
			<stop offset="0" stop-color="#ED7506"/>
			<stop offset="1" stop-color="#A44822"/>
		</linearGradient>
	</defs>
	<path fill="url(#gradient_16)" d="M409.823 425.879C420.177 419.988 432.341 418.85 443.822 422.028C451.222 424.076 459.157 429.235 462.962 436.045C465.015 439.719 465.452 443.468 465.9 447.559C465.027 449.248 465.041 450.791 464.959 452.664C464.85 452.116 464.73 451.567 464.631 451.016C464.06 447.822 463.179 445.167 461.55 442.351C457.486 435.326 450.618 429.544 442.715 427.451C432.753 424.813 420.889 426.333 411.996 431.476L409.092 433.644C408.621 432.969 408.861 433.25 408.256 432.649C407.155 431.556 406.311 430.683 405.567 429.318C406.928 428.092 408.372 426.994 409.823 425.879Z"/>
	<path fill="#DA7D12" d="M405.567 429.318C406.928 428.092 408.372 426.994 409.823 425.879C410.702 427.74 411.496 429.469 411.996 431.476L409.092 433.644C408.621 432.969 408.861 433.25 408.256 432.649C407.155 431.556 406.311 430.683 405.567 429.318Z"/>
	<path fill="#FEFEFD" d="M280.078 244.042C281.118 243.998 282.2 243.892 283.226 244.125C287.048 244.992 290.784 247.317 292.676 250.806Q292.938 251.278 293.149 251.776Q293.359 252.273 293.516 252.79Q293.672 253.307 293.772 253.838Q293.873 254.369 293.916 254.907Q293.959 255.446 293.945 255.986Q293.931 256.526 293.859 257.061Q293.788 257.596 293.66 258.121Q293.531 258.646 293.348 259.154C291.768 263.542 288.328 265.646 284.296 267.434C282.985 267.51 281.637 267.582 280.36 267.21C276.717 266.148 273.491 263.636 271.9 260.162C270.612 257.349 270.498 254.187 271.702 251.324C273.32 247.477 276.366 245.577 280.078 244.042Z"/>
	<path fill="#DA7D12" d="M568.25 498.809L570.221 501.119C573.559 505.29 576.769 509.097 581.416 511.867C586.685 515.009 593.128 516.337 599.013 517.878C613.858 521.765 628.613 524.878 641.779 533.176C643.843 534.477 647.621 536.3 649.078 538.122L648.293 538.748Q650.091 541.363 651.83 544.017L651.322 543.744C650.221 543.164 649.391 542.596 648.102 542.718C645.572 541.384 643.22 539.45 640.728 537.988C635.72 535.05 630.552 532.741 625.17 530.595C618.742 528.031 612.298 525.886 605.635 524.02C594.987 521.039 581.556 519.804 573.4 511.626C569.787 508.003 568.144 503.892 568.25 498.809Z"/>
	<path fill="#FCF77A" d="M465.9 447.559C466.47 449.253 466.813 450.814 467.023 452.589C467.878 453.256 468.372 453.407 469.443 453.555C470.949 455.628 470.476 459.686 470.485 462.202C470.404 476.399 471.247 490.616 471.127 504.8C471.258 513.405 471.578 522.665 470.571 531.199C470.732 541.519 470.303 551.84 470.671 562.158L469.688 563.193L468.559 563.043L468.428 558.453Q468.586 546.071 468.375 533.69C467.683 527.307 467.302 520.628 466.918 514.214C466.7 510.582 466.968 506.783 466.064 503.247C465.911 501.206 465.987 499.092 465.953 497.042C465.144 493.394 465.422 488.854 465.322 485.098C465.035 474.285 465.142 463.478 464.959 452.664C465.041 450.791 465.027 449.248 465.9 447.559Z"/>
	<path fill="#FABD07" d="M465.9 447.559C466.47 449.253 466.813 450.814 467.023 452.589C467.878 453.256 468.372 453.407 469.443 453.555C470.949 455.628 470.476 459.686 470.485 462.202C470.148 461.074 470.19 460.123 469.12 459.544C467.609 463.172 468.051 477.741 468.421 481.935C468.137 486.969 468.961 494.381 467.03 498.981L466.831 497.46L465.953 497.042C465.144 493.394 465.422 488.854 465.322 485.098C465.035 474.285 465.142 463.478 464.959 452.664C465.041 450.791 465.027 449.248 465.9 447.559Z"/>
	<path fill="#FEFEFD" d="M297.957 203.087C300.53 202.95 302.765 202.94 305.218 203.822C308.841 205.124 311.716 207.475 313.309 211.025Q313.629 211.741 313.874 212.487Q314.119 213.232 314.286 213.998Q314.454 214.765 314.542 215.544Q314.63 216.324 314.638 217.108Q314.646 217.893 314.574 218.674Q314.502 219.455 314.35 220.225Q314.199 220.995 313.969 221.745Q313.74 222.495 313.435 223.218C310.79 229.362 305.56 232.469 299.576 234.684C297.591 234.811 295.514 234.662 293.597 234.126C288.172 232.606 284.661 229.191 281.999 224.389C281.995 220.078 282.2 216.333 284.321 212.429C287.324 206.901 292.192 204.68 297.957 203.087Z"/>
	<path fill="#DA7D12" d="M520.797 446.979C547.529 422.413 566.397 418.59 601.993 420.039C608.895 420.32 615.935 420.628 622.755 421.752C638.963 424.423 660.073 431.656 671.378 444.024Q672.942 445.745 674.342 447.602C673.358 447.699 671.968 448 671.019 447.888C667.252 447.444 663.079 441.037 657.493 440.708L657.085 440.533C651.027 437.882 645.468 434.038 639.242 431.773C634.768 430.146 629.982 429.183 625.342 428.136C601.514 422.762 576.056 421.977 552.935 430.977C542.434 435.064 533.388 440.777 525.168 448.422C522.25 451.136 519.459 454.371 516.311 456.773C512.652 457.54 510.486 464.435 507.955 467.007L507.558 466.487C509.774 459.422 519.448 451.467 520.797 446.979Z"/>
	<path fill="#19022F" d="M369.854 334.168C378.783 333.405 389.055 333.125 396.616 338.777C398.891 340.478 401.412 343.167 401.696 346.139C401.847 347.718 401.253 349.133 400.154 350.245C396.363 354.082 389.051 354.274 383.965 354.504C374.559 354.578 362.096 355.702 353.613 350.999C352.087 350.153 350.506 348.853 350.254 347.006C350.006 345.19 351.093 343.334 352.163 341.961C356.242 336.731 363.621 335.067 369.854 334.168Z"/>
	<path fill="#150156" d="M616.285 333.6C624.426 332.792 635.74 333.494 642.832 337.952C645.398 339.565 648.663 342.415 649.107 345.617C649.314 347.113 648.699 348.374 647.73 349.458C643.849 353.799 636.456 353.952 631.112 354.394C623.023 354.667 609.114 356.641 601.969 352.356C600.011 351.181 598.726 349.443 598.315 347.181C597.977 345.315 598.45 343.558 599.55 342.027C603.145 337.021 610.505 334.76 616.285 333.6Z"/>
	<defs>
		<linearGradient id="gradient_17" gradientUnits="userSpaceOnUse" x1="629.18646" y1="451.55576" x2="621.64655" y2="505.64218">
			<stop offset="0" stop-color="#FAFDE4"/>
			<stop offset="1" stop-color="white"/>
		</linearGradient>
	</defs>
	<path fill="url(#gradient_17)" d="M676.124 456.258C676.291 456.163 676.452 456.056 676.627 455.974C677.467 455.582 678.03 455.667 678.924 455.735C680.083 456.887 680.358 457.95 680.376 459.587C680.486 469.387 665.09 493.101 657.978 499.844C653.513 504.077 647.425 507.684 641.115 507.622C635.82 507.57 630.942 504.773 626.301 502.526C614.96 497.035 602.713 491.632 589.823 493.231C586.208 493.679 582.28 494.641 579.583 497.237C577.932 498.826 576.516 501.034 574.596 502.271L574.035 502.033C572.7 501.478 571.704 501.017 570.221 501.119L568.25 498.809C568.531 497.571 568.791 496.301 569.221 495.106C570.663 491.098 574.503 488.229 578.327 486.709C589.728 482.176 606.349 484.452 617.326 489.238C622.887 491.663 627.98 495.1 633.543 497.528C637.601 499.299 641.734 500.52 646.019 498.712C648.656 497.6 650.942 495.366 652.797 493.232C656.825 488.596 659.806 483.075 663.152 477.945C667.511 471.263 672.671 464.594 675.805 457.236L676.124 456.258Z"/>
	<defs>
		<linearGradient id="gradient_18" gradientUnits="userSpaceOnUse" x1="558.04944" y1="549.79388" x2="545.93152" y2="578.84827">
			<stop offset="0" stop-color="#F9FDCB"/>
			<stop offset="1" stop-color="white"/>
		</linearGradient>
	</defs>
	<path fill="url(#gradient_18)" d="M494.754 520.852C494.825 520.762 494.876 520.653 494.965 520.582C496.24 519.567 498.812 519.937 500.423 519.918L502.03 524.996C510.024 546.206 523.536 561.07 544.302 570.38C552.149 573.898 560.585 576.642 568.784 579.213C580.373 582.848 607.487 588.325 612.1 600.74C612.725 602.422 612.9 604.079 613.001 605.857L612.506 606.119C610.206 605.936 597.771 596.651 593.08 594.891C571.818 586.912 550.123 584.21 530.055 572.333C512.432 561.903 500.856 547.194 495.75 527.357Q495.225 524.109 494.754 520.852Z"/>
	<path fill="#FCF77A" d="M494.754 520.852C494.825 520.762 494.876 520.653 494.965 520.582C496.24 519.567 498.812 519.937 500.423 519.918L502.03 524.996C499.943 525.676 497.642 526.236 495.75 527.357Q495.225 524.109 494.754 520.852Z"/>
	<path fill="#1F0024" d="M383.59 188.213C390.393 187.811 398.772 189.246 404.759 192.602C407.703 194.252 410.687 196.837 411.445 200.281C412.085 203.192 411.264 206.453 409.707 208.944C404.866 216.684 395.043 210.18 388.279 209.103C383.927 208.411 379.994 208.968 375.768 209.99C370.354 211.558 365.246 216.018 359.85 216.792C357.554 217.121 355.26 216.367 353.461 214.937C351.317 213.233 349.722 210.627 349.438 207.879C349.155 205.144 350.257 202.758 352.007 200.717C359.308 192.2 372.956 189.029 383.59 188.213Z"/>
	<path fill="#1F0024" d="M614.221 188.187C619.301 187.792 624.521 188.716 629.399 190.097C636.527 192.114 646.182 196.551 649.747 203.481C650.766 205.461 650.989 207.555 650.181 209.654C649.081 212.511 646.465 215.104 643.643 216.26C638.631 218.311 631.785 213.23 627.165 211.254C618.052 208.751 611.172 210.291 602.258 212.412C599.036 213.179 596.022 213.647 593.122 211.717C590.829 210.191 588.915 207.688 588.504 204.917C588.149 202.526 589.246 200.17 590.664 198.309C596.032 191.263 605.892 189.101 614.221 188.187Z"/>
	<path fill="#FEFEFD" d="M567.809 349.167C569.488 349.243 570.128 349.151 571.582 350.057C573.116 352.865 572.551 355.525 571.665 358.477C566.408 376.003 552.039 390.19 536.103 398.577C519.06 407.547 498.28 408.835 480.013 403.055C466.954 398.924 452.57 391.906 443.427 381.41L442.471 378.674C442.775 377.277 442.819 377.059 443.8 376.036C445.75 375.526 446.56 375.682 448.41 376.443C451.215 378.095 453.637 381.307 456.367 383.24C465.071 389.404 476.172 394.092 486.599 396.275C504.961 400.118 524.045 396.917 539.748 386.557C553.433 377.528 564.387 365.528 567.809 349.167Z"/>
	<path fill="#FBEB0F" d="M731.06 459.793C731.408 462.001 731.601 464.057 731.553 466.294C732.039 468.612 732.086 470.819 732.113 473.172L732.984 473.407C736.501 474.37 742.965 477.061 745.074 480.007L745.47 479.964C745.502 478.012 744.921 474.286 745.724 472.698L746.41 472.637C746.657 481.292 746.263 489.992 745.983 498.645C746.378 515.539 746.05 532.541 746.065 549.442C746.076 560.576 746.476 571.705 746.455 582.841L746.134 583.363C744.341 581.84 736.071 575.796 735.48 574.554C737.973 573.865 742.501 577.132 744.664 578.353C744.691 577.294 744.962 576.328 744.326 575.457C739.884 574.052 736.629 571.151 732.725 568.687C732.512 571.1 733.639 575.122 733.015 577.064L732.076 577.019L731.505 523.862C731.987 516.758 731.39 509.365 731.224 502.249C730.895 488.166 730.493 473.866 731.06 459.793Z"/>
	<path fill="#FCF77A" d="M731.553 466.294C732.039 468.612 732.086 470.819 732.113 473.172L732.984 473.407C736.501 474.37 742.965 477.061 745.074 480.007L745.47 479.964C745.502 478.012 744.921 474.286 745.724 472.698L746.41 472.637C746.657 481.292 746.263 489.992 745.983 498.645C743.478 502.114 746.767 508.752 744.136 512.118C742.452 511.23 742.06 509.129 741.004 507.55C739.982 506.024 739.06 505.517 737.271 505.198C735.667 504.912 734.139 504.551 732.566 504.123C730.843 499.267 731.05 472.327 731.553 466.294Z"/>
	<defs>
		<linearGradient id="gradient_19" gradientUnits="userSpaceOnUse" x1="586.74628" y1="608.93036" x2="580.94824" y2="692.99646">
			<stop offset="0" stop-color="#FBFEE3"/>
			<stop offset="1" stop-color="white"/>
		</linearGradient>
	</defs>
	<path fill="url(#gradient_19)" d="M674.383 628.683C678.084 625.854 678.838 619.506 682.104 615.951C683.903 617.095 680.676 623.534 681.611 626.196C681.719 626.504 681.843 626.806 681.959 627.111C677.297 649.538 663.311 666.487 644.348 678.795C637.596 683.177 630.164 686.222 622.53 688.689C599.072 696.271 578.152 695.363 554.33 690.221C546.058 688.435 537.471 685.995 529.55 683.02C517.813 678.613 494.6 667.934 488.149 657.192C486.918 655.142 486.706 651.05 487.42 648.798C487.828 647.514 488.203 646.92 489.341 646.231C490.045 646.432 490.279 646.5 490.852 646.991L491.413 648.048C491.489 648.242 491.557 648.441 491.642 648.632C495.91 658.242 516.761 667.702 526.623 671.834C556.546 684.372 595.316 690.144 625.94 677.394C648.71 667.914 664.993 651.363 674.383 628.683Z"/>
	<defs>
		<linearGradient id="gradient_20" gradientUnits="userSpaceOnUse" x1="387.19754" y1="563.26178" x2="386.82623" y2="691.52991">
			<stop offset="0" stop-color="#FDFDC1"/>
			<stop offset="1" stop-color="#FEFFFF"/>
		</linearGradient>
	</defs>
	<path fill="url(#gradient_20)" d="M468.428 558.453L468.559 563.043L469.688 563.193L470.671 562.158C472.632 598.878 476.394 633.691 449.823 663.304C435.071 679.744 411.156 691.602 389.005 692.636C365.468 693.734 341.515 687.648 320.867 676.413C316.045 673.79 310.92 670.888 306.855 667.153C304.48 664.972 301.984 662.022 301.979 658.602C301.976 656.422 303.362 653.412 305.087 652.073C305.614 651.664 305.783 651.675 306.427 651.465C306.816 652.834 307.365 654.199 308.174 655.376C316.824 667.975 347.764 678.037 362.137 680.738C386.356 685.29 410.613 681.69 431.19 667.422C449.844 654.488 461.062 633.213 464.926 611.194C465.721 602.24 465.879 593.248 466.094 584.266C466.962 579.882 466.624 574.972 466.924 570.504C467.195 566.483 467.889 562.449 468.428 558.453Z"/>
	<path fill="#F4AB28" d="M468.428 558.453L468.559 563.043Q468.369 579.632 467.593 596.203C467.447 599.786 467.823 603.637 467.091 607.145C466.736 608.847 466.115 609.949 464.926 611.194C465.721 602.24 465.879 593.248 466.094 584.266C466.962 579.882 466.624 574.972 466.924 570.504C467.195 566.483 467.889 562.449 468.428 558.453Z"/>
	<path fill="#F96917" d="M355.88 395.572C357.558 394.388 358.935 393.525 360.897 392.893C364.242 396.966 366.68 400.185 367.9 405.447C369.548 412.555 369.595 420.472 369.888 427.746C370.487 442.602 370.434 457.423 370.561 472.285C370.715 490.413 372.007 508.797 370.274 526.872C368.082 549.736 354.828 580.607 336.982 595.258C311.109 616.499 263.682 603.732 243.958 621.977C243.328 609.989 243.513 597.956 243.551 585.956C257.124 586.66 281.111 586.853 294.288 584.939C313.29 582.179 331.047 571.094 342.454 555.734Q343.673 554.083 344.794 552.365Q345.915 550.646 346.935 548.866Q347.954 547.085 348.869 545.249Q349.784 543.412 350.591 541.526Q351.398 539.639 352.094 537.709Q352.79 535.779 353.374 533.812Q353.957 531.845 354.426 529.847Q354.894 527.849 355.246 525.828C358.703 506.211 356.251 481.82 356.361 461.536L356.807 423.997C356.903 414.651 357.268 404.831 355.88 395.572Z"/>
	<path fill="#1F0024" d="M609.673 230.659C616.24 230.022 622.787 229.976 629.197 231.727C642.65 235.401 654.531 245.519 661.393 257.511C669.038 270.872 670.261 287.79 665.718 302.415C663.922 308.199 661.107 313.6 659.556 319.477L659.362 320.233C663.907 320.653 669.415 322.1 672.958 325.211C673.79 325.941 675.053 326.966 675.094 328.091C671.066 327.413 667.768 323.77 663.712 322.989C660.133 322.301 655.942 322.81 652.302 322.796C648.954 322.784 645.609 322.399 642.284 322.037C628.936 321.766 617.124 324.986 604.166 327.163C596.724 328.413 590.923 326.203 584.945 321.875C574.424 314.256 568.134 302.471 566.227 289.75C564.109 275.625 568.123 262.081 576.606 250.732Q577.339 249.731 578.121 248.767Q578.902 247.804 579.73 246.88Q580.558 245.955 581.43 245.073Q582.303 244.191 583.217 243.352Q584.132 242.514 585.086 241.721Q586.041 240.928 587.033 240.184Q588.026 239.439 589.054 238.744Q590.081 238.049 591.142 237.405Q592.203 236.761 593.294 236.17Q594.385 235.579 595.503 235.042Q596.622 234.505 597.766 234.024Q598.909 233.543 600.075 233.119Q601.241 232.694 602.426 232.328Q603.612 231.961 604.814 231.653Q606.016 231.345 607.231 231.096Q608.447 230.848 609.673 230.659Z"/>
	<path fill="#532365" d="M588.493 280.269C588.693 280.316 588.899 280.339 589.092 280.409C590.214 280.817 590.625 281.523 591.175 282.512C591.192 284.271 591.098 284.245 589.975 285.622C589.535 285.512 588.955 285.382 588.547 285.208C587.326 284.687 587.075 284.432 586.53 283.309C586.747 281.89 587.534 281.242 588.493 280.269Z"/>
	<path fill="#FEFEFD" d="M633.891 276.09C637.146 276.242 640.117 276.929 642.981 278.548C645.314 279.866 647.204 281.86 647.874 284.502C648.76 287.993 647.034 290.744 645.308 293.656C643.693 294.64 642.057 295.329 640.304 296.034C637.855 296.52 635.191 296.985 632.774 296.126Q632.307 295.956 631.859 295.739Q631.411 295.523 630.987 295.263Q630.563 295.003 630.168 294.702Q629.772 294.4 629.409 294.061Q629.045 293.721 628.718 293.347Q628.39 292.973 628.101 292.568Q627.813 292.163 627.566 291.731Q627.32 291.299 627.118 290.845Q626.903 290.371 626.736 289.878Q626.569 289.385 626.452 288.877Q626.334 288.37 626.268 287.854Q626.202 287.337 626.187 286.817Q626.172 286.296 626.209 285.777Q626.246 285.257 626.335 284.744Q626.423 284.231 626.562 283.729Q626.701 283.228 626.889 282.742C628.167 279.478 630.764 277.446 633.891 276.09Z"/>
	<path fill="#FEFEFD" d="M606.576 246.557C611.156 246.305 615.374 246.416 619.389 249.004C622.792 251.197 624.978 254.665 625.81 258.6Q625.91 259.082 625.987 259.569Q626.063 260.055 626.115 260.545Q626.168 261.034 626.196 261.526Q626.224 262.018 626.227 262.51Q626.231 263.003 626.21 263.495Q626.189 263.987 626.144 264.477Q626.099 264.967 626.03 265.455Q625.961 265.942 625.867 266.426Q625.774 266.909 625.657 267.388Q625.54 267.866 625.399 268.338Q625.259 268.81 625.095 269.274Q624.931 269.739 624.745 270.195Q624.558 270.65 624.349 271.096Q624.141 271.542 623.91 271.977Q623.679 272.412 623.427 272.836Q623.175 273.259 622.903 273.669C619.205 279.258 613.907 282.02 607.522 283.374C603.42 283.661 599.456 283.284 595.777 281.284C592.263 279.375 589.845 276.253 588.732 272.423C587.27 267.389 587.824 261.724 590.464 257.172C594.072 250.953 599.909 248.243 606.576 246.557Z"/>
	<path fill="#1F0024" d="M376.318 231.1C381.153 230.687 385.947 230.588 390.752 231.378C404.572 233.649 416.738 240.57 424.847 252.057C432.764 263.269 436.568 276.509 434.199 290.149C431.884 303.476 423.693 314.422 412.703 322.041C399.553 331.159 391.182 327.656 376.824 325.076C364.683 324.145 352.587 324.902 340.449 323.788C341.57 323.719 342.428 323.585 343.486 323.206L343.495 322.463C343.073 322.178 342.736 321.916 342.234 321.751C339.233 320.764 334.257 323.196 331.498 324.255L331.107 323.298L331.654 322.296C334.893 320.251 338.189 319.851 341.9 319.38C338.731 312.104 334.327 306.119 332.631 298.168C329.299 282.541 331.438 267.393 340.362 253.956C348.815 241.228 361.514 234.065 376.318 231.1Z"/>
	<path fill="#CDC7E1" d="M354.137 279.279C355.532 279.619 356.62 280.201 357.738 281.092C359.105 282.182 360.084 283.643 360.088 285.459C360.093 287.63 358.723 289.108 357.312 290.577C355.371 290.656 353.032 290.916 351.548 289.402C350.561 288.394 350.186 287.271 350.187 285.88C350.19 283.086 352.132 280.928 354.137 279.279Z"/>
	<path fill="#FEFEFD" d="M400.952 276.504C403.403 276.404 405.749 276.494 408.031 277.503C410.814 278.734 413.275 281.061 414.316 283.959C415.094 286.127 415.134 288.53 414.11 290.624C412.618 293.671 410.243 294.812 407.175 295.848C404.891 296.322 402.737 296.598 400.444 295.98C397.947 295.307 395.699 293.722 394.463 291.421C393.254 289.168 393.131 286.474 393.915 284.063C395.075 280.494 397.73 278.194 400.952 276.504Z"/>
	<path fill="#FEFEFD" d="M373.613 247.078C378.148 246.731 382.474 246.823 386.55 249.094Q387.204 249.457 387.816 249.885Q388.428 250.314 388.993 250.803Q389.558 251.293 390.068 251.839Q390.579 252.384 391.031 252.98Q391.482 253.576 391.869 254.215Q392.256 254.855 392.575 255.531Q392.894 256.207 393.141 256.912Q393.388 257.618 393.56 258.345C394.821 263.445 393.628 269.045 390.855 273.449C387.412 278.918 382.524 281.403 376.461 282.889C371.762 283.559 367.126 283.5 362.859 281.139C359.196 279.112 356.703 275.714 355.678 271.673C354.404 266.646 355.314 260.918 358.093 256.538C361.748 250.778 367.238 248.504 373.613 247.078Z"/>
	<path fill="#1F0024" d="M433.494 352.673C431.096 346.65 430.512 339.391 431.458 333.01C432.365 326.9 434.43 320.382 439.69 316.644C442.966 314.317 447.059 313.277 451.048 313.357C458.407 313.505 465.88 316.814 472.988 318.637C481.26 320.757 490.441 322.287 498.965 322.619C507.875 322.967 516.24 321.891 524.806 319.428C534.022 316.778 543.447 310.222 553.337 311.867C557.784 312.607 561.419 314.962 563.972 318.674C569.762 327.094 569.743 339.542 567.809 349.167C564.387 365.528 553.433 377.528 539.748 386.557C524.045 396.917 504.961 400.118 486.599 396.275C476.172 394.092 465.071 389.404 456.367 383.24C453.637 381.307 451.215 378.095 448.41 376.443C441.719 369.105 436.909 362.033 433.494 352.673Z"/>
	<path fill="#FF9368" d="M480.332 360.143C480.256 361.929 480.047 363.374 480.956 364.968C481.461 365.309 481.923 365.665 482.489 365.897C480.176 367.136 475.629 370.297 472.912 369.286C472.604 369.172 472.337 368.969 472.05 368.81C474.069 365.445 477.454 362.752 480.332 360.143Z"/>
	<path fill="#FEA65F" d="M480.332 360.143C483.388 357.493 486.442 355.449 490.166 353.853C489.046 355.631 488.215 356.56 488.359 358.73C489.6 360.407 492.449 360.958 494.356 361.783C490.393 363.101 486.355 364.318 482.489 365.897C481.923 365.665 481.461 365.309 480.956 364.968C480.047 363.374 480.256 361.929 480.332 360.143Z"/>
	<path fill="#FEFEFD" d="M490.166 353.853C503.889 347.465 530.911 341.121 545.462 346.699C547.534 347.494 550.256 348.702 551.26 350.799C550.919 353.618 548.857 356.176 547.249 358.442C541.941 359.769 536.161 357.224 530.827 356.62C520.621 355.465 503.773 357.665 494.356 361.783C492.449 360.958 489.6 360.407 488.359 358.73C488.215 356.56 489.046 355.631 490.166 353.853Z"/>
	<path fill="#FA5961" d="M494.356 361.783C503.773 357.665 520.621 355.465 530.827 356.62C536.161 357.224 541.941 359.769 547.249 358.442C540.669 369.004 530.289 377.038 518.085 379.943C504.62 383.148 490.861 380.768 478.264 375.502C476.455 374.746 474.101 374.064 472.503 372.935C472.011 372.588 471.666 372.109 471.304 371.64C471.2 370.242 471.367 370.058 472.05 368.81C472.337 368.969 472.604 369.172 472.912 369.286C475.629 370.297 480.176 367.136 482.489 365.897C486.355 364.318 490.393 363.101 494.356 361.783Z"/>
	<path fill="#1F0024" d="M411.996 431.476C420.889 426.333 432.753 424.813 442.715 427.451C450.618 429.544 457.486 435.326 461.55 442.351C463.179 445.167 464.06 447.822 464.631 451.016C464.73 451.567 464.85 452.116 464.959 452.664C465.142 463.478 465.035 474.285 465.322 485.098C465.422 488.854 465.144 493.394 465.953 497.042C465.987 499.092 465.911 501.206 466.064 503.247C466.968 506.783 466.7 510.582 466.918 514.214C467.302 520.628 467.683 527.307 468.375 533.69Q468.586 546.071 468.428 558.453C467.889 562.449 467.195 566.483 466.924 570.504C466.624 574.972 466.962 579.882 466.094 584.266C465.879 593.248 465.721 602.24 464.926 611.194C461.062 633.213 449.844 654.488 431.19 667.422C410.613 681.69 386.356 685.29 362.137 680.738C347.764 678.037 316.824 667.975 308.174 655.376C307.365 654.199 306.816 652.834 306.427 651.465C306.947 649.705 307.747 648.1 308.531 646.445C315.383 638.699 319.06 628.815 325.16 620.572Q329.716 615.229 334.934 610.53C337.044 608.8 339.201 607.384 341.522 605.964C349.387 608.915 355.436 615.826 362.937 619.671C370.175 623.382 380.581 624.571 388.334 621.907C394.075 619.934 397.259 615.337 399.736 610.104C406.283 596.576 403.726 577.834 403.296 563.195L402.773 538.415Q402.1 518.114 401.903 497.802C402.386 481.549 402.364 464.516 401.155 448.317C401.967 442.075 404.802 437.973 409.092 433.644L411.996 431.476Z"/>
	<path fill="#2C315E" d="M429.414 646.606C429.006 647.993 428.259 649.335 427.786 650.729C431.468 651.224 442.127 646.23 445.471 644.12C441.543 650.463 434.952 655.818 427.634 657.584C424.792 658.27 421.897 657.955 419.012 657.764Q424.427 652.385 429.414 646.606Z"/>
	<path fill="#FEA65F" d="M466.064 503.247C466.968 506.783 466.7 510.582 466.918 514.214C467.302 520.628 467.683 527.307 468.375 533.69Q468.586 546.071 468.428 558.453C467.889 562.449 467.195 566.483 466.924 570.504C466.624 574.972 466.962 579.882 466.094 584.266C465.251 557.347 465.925 530.183 466.064 503.247Z"/>
	<path fill="#0AF0FC" d="M421.383 444.489C425.309 441.589 429.932 439.749 434.886 440.386C440.27 441.078 444.324 444.843 448.098 448.423C446.542 451.702 442.613 459.778 439.289 461.097L438.782 461.179C432.007 462.412 425.383 462.385 418.857 460.009C418.416 456.012 418.417 452.173 418.646 448.164C419.501 446.896 420.451 445.701 421.383 444.489Z"/>
	<path fill="#09D5F6" d="M421.383 444.489C425.309 441.589 429.932 439.749 434.886 440.386C440.27 441.078 444.324 444.843 448.098 448.423C446.542 451.702 442.613 459.778 439.289 461.097L438.782 461.179C439.278 457.199 440.413 451.997 437.892 448.487C435.159 444.681 425.741 445.1 421.383 444.489Z"/>
	<defs>
		<linearGradient id="gradient_21" gradientUnits="userSpaceOnUse" x1="463.8754" y1="499.20221" x2="433.28009" y2="511.43512">
			<stop offset="0" stop-color="#2F2048"/>
			<stop offset="1" stop-color="#413C5C"/>
		</linearGradient>
	</defs>
	<path fill="url(#gradient_21)" d="M448.098 448.423C449.623 450.374 451.283 452.361 451.468 454.935L455.769 503.878C456.419 510.826 457.668 517.704 457.986 524.684C458.769 541.837 457.83 559.094 457.908 576.267C456.737 570.127 456.685 560.813 456.939 554.493C457.049 551.76 457.74 549.077 457.412 546.345C454.218 547.577 451.216 547.76 447.837 547.976C447.097 553.292 448.802 559.932 447.27 564.907C447.183 565.187 447.084 565.463 446.991 565.741C445.554 548.661 447.211 531.141 447.046 514.003C446.931 502.07 445.097 490.25 444.329 478.369C444.029 473.728 445.274 468.644 443.826 464.171C442.542 462.976 440.13 463.255 438.377 462.83C435.76 462.195 433.358 463.166 430.732 463.2C427.342 463.244 423.836 461.467 420.446 462.302C417.118 465.954 420.583 480.065 418.835 483.819C417.992 481.526 418.527 463.524 418.857 460.009C425.383 462.385 432.007 462.412 438.782 461.179L439.289 461.097C442.613 459.778 446.542 451.702 448.098 448.423Z"/>
	<path fill="#2D5988" d="M448.098 448.423C449.623 450.374 451.283 452.361 451.468 454.935C450.987 457.215 450.737 458.942 448.69 460.342C446.411 461.901 441.92 461.195 439.289 461.097C442.613 459.778 446.542 451.702 448.098 448.423Z"/>
	<path fill="#2D5988" d="M446.991 565.741C447.084 565.463 447.183 565.187 447.27 564.907C448.802 559.932 447.097 553.292 447.837 547.976C451.216 547.76 454.218 547.577 457.412 546.345C457.74 549.077 457.049 551.76 456.939 554.493C456.685 560.813 456.737 570.127 457.908 576.267C459.042 602.214 459.155 621.082 445.471 644.12C442.127 646.23 431.468 651.224 427.786 650.729C428.259 649.335 429.006 647.993 429.414 646.606C448.057 620.06 446.279 596.524 446.991 565.741Z"/>
	<path fill="#1F0024" d="M516.311 456.773C519.459 454.371 522.25 451.136 525.168 448.422C533.388 440.777 542.434 435.064 552.935 430.977C576.056 421.977 601.514 422.762 625.342 428.136C629.982 429.183 634.768 430.146 639.242 431.773C645.468 434.038 651.027 437.882 657.085 440.533L657.493 440.708C663.079 441.037 667.252 447.444 671.019 447.888C671.968 448 673.358 447.699 674.342 447.602C676.05 450.105 677.192 451.625 676.535 454.733C676.398 455.382 676.304 455.659 676.124 456.258L675.805 457.236C672.671 464.594 667.511 471.263 663.152 477.945C659.806 483.075 656.825 488.596 652.797 493.232C650.942 495.366 648.656 497.6 646.019 498.712C641.734 500.52 637.601 499.299 633.543 497.528C627.98 495.1 622.887 491.663 617.326 489.238C606.349 484.452 589.728 482.176 578.327 486.709C574.503 488.229 570.663 491.098 569.221 495.106C568.791 496.301 568.531 497.571 568.25 498.809C568.144 503.892 569.787 508.003 573.4 511.626C581.556 519.804 594.987 521.039 605.635 524.02C612.298 525.886 618.742 528.031 625.17 530.595C630.552 532.741 635.72 535.05 640.728 537.988C643.22 539.45 645.572 541.384 648.102 542.718C664.175 555.797 673.373 570.248 677.341 590.619C677.72 593.073 678.104 595.51 678.301 597.987C679.029 609.285 677.716 617.938 674.383 628.683C664.993 651.363 648.71 667.914 625.94 677.394C595.316 690.144 556.546 684.372 526.623 671.834C516.761 667.702 495.91 658.242 491.642 648.632C491.557 648.441 491.489 648.242 491.413 648.048C491.413 646.882 491.415 645.746 491.699 644.607C493.361 637.963 508.576 613.733 513.306 607.902C515.095 605.698 516.933 603.798 519.43 602.39C523.403 600.942 525.336 600.309 529.359 602.172C535.948 605.223 541.919 610.418 548.014 614.365C554.435 618.523 561.833 621.075 569.051 623.463C571.291 621.779 574.145 623.593 576.814 621.531C584.502 622.294 589.835 622.691 597.378 620.638C600.675 621.806 602.937 620.839 606.116 619.811C607.225 619.175 608.265 618.225 609.152 617.308C612.057 614.304 613.161 609.921 613.001 605.857C612.9 604.079 612.725 602.422 612.1 600.74C607.487 588.325 580.373 582.848 568.784 579.213C560.585 576.642 552.149 573.898 544.302 570.38C523.536 561.07 510.024 546.206 502.03 524.996L500.423 519.918C499.533 515.867 498.971 511.892 498.564 507.766Q498.665 500.538 499.757 493.392C502.805 479.32 507.698 468.282 516.311 456.773Z"/>
	<path fill="#2C315E" d="M646.334 644.806C647.665 645.853 648.862 647.242 650.698 647.11C651.62 647.044 652.609 646.674 653.494 646.418L655.423 645.855C652.783 647.967 647.376 650.879 643.874 650.516C642.93 650.418 643.292 650.532 642.63 649.679C643.254 647.75 644.977 646.267 646.334 644.806Z"/>
	<path fill="#2C315E" d="M644.443 560.137C647.902 562.516 650.898 564.954 653.651 568.143C652.146 569.556 652.162 571.75 651.756 573.752Q648.387 566.79 644.443 560.137Z"/>
	<path fill="#532365" d="M644.458 468.331C647.029 469.247 649.656 470.439 652.26 471.199C649.495 474.318 646.865 476.787 642.885 478.312L642.587 477.696C642.924 475.98 645.284 473.993 646.412 472.501C645.559 471.139 645.008 469.839 644.458 468.331Z"/>
	<path fill="#19022F" d="M636.498 465.527C640.4 467.244 642.742 470.763 646.412 472.501C645.284 473.993 642.924 475.98 642.587 477.696L642.885 478.312L642.02 478.406C640.282 476.769 639.506 475.392 639.21 473.012L641.181 471.265C640.601 469.229 637.605 467.841 636.498 465.527Z"/>
	<path fill="#F96917" d="M657.493 440.708C663.079 441.037 667.252 447.444 671.019 447.888C671.968 448 673.358 447.699 674.342 447.602C676.05 450.105 677.192 451.625 676.535 454.733C676.398 455.382 676.304 455.659 676.124 456.258L675.805 457.236C675.769 457.065 675.739 456.893 675.698 456.724C673.965 449.579 663.442 444.333 657.493 440.708Z"/>
	<path fill="#1A8CB9" d="M521.311 621.888C522.034 620.445 522.708 618.932 523.519 617.538C526.816 619.512 531.762 622.268 532.79 626.215L532.581 626.926C531.739 626.744 530.897 626.537 530.051 626.379C527.555 625.912 525.034 625.264 523.425 623.101C523.238 622.849 523.112 622.545 522.877 622.337C522.307 621.831 521.998 621.925 521.311 621.888Z"/>
	<path fill="#150156" d="M625.385 459.64C629.874 460.284 634.25 461.197 638.649 462.291C640.043 464.937 643.401 466.146 644.458 468.331C645.008 469.839 645.559 471.139 646.412 472.501C642.742 470.763 640.4 467.244 636.498 465.527C633.004 463.834 627.168 463.161 625.385 459.64Z"/>
	<path fill="#2D5988" d="M521.311 621.888C521.998 621.925 522.307 621.831 522.877 622.337C523.112 622.545 523.238 622.849 523.425 623.101C525.034 625.264 527.555 625.912 530.051 626.379C530.897 626.537 531.739 626.744 532.581 626.926C530.941 628.427 529.113 629.662 527.196 630.781C524.815 632.171 522.188 632.951 519.477 632.241C518.849 631.7 518.42 631.528 518.185 630.69C517.386 627.85 519.956 624.299 521.311 621.888Z"/>
	<path fill="#B74D16" d="M597.378 620.638C600.675 621.806 602.937 620.839 606.116 619.811C598.187 626.21 587.312 625.929 577.701 624.884C574.778 624.566 571.925 624.072 569.051 623.463C571.291 621.779 574.145 623.593 576.814 621.531C584.502 622.294 589.835 622.691 597.378 620.638Z"/>
	<defs>
		<linearGradient id="gradient_22" gradientUnits="userSpaceOnUse" x1="668.15771" y1="607.45447" x2="646.69757" y2="608.21429">
			<stop offset="0" stop-color="#2770B3"/>
			<stop offset="1" stop-color="#2F4577"/>
		</linearGradient>
	</defs>
	<path fill="url(#gradient_22)" d="M651.756 573.752C652.162 571.75 652.146 569.556 653.651 568.143C664.89 580.242 669.827 595.076 669.165 611.53C668.755 621.712 665.275 636.765 657.565 643.971C656.873 644.618 656.147 645.243 655.423 645.855L653.494 646.418C652.609 646.674 651.62 647.044 650.698 647.11C648.862 647.242 647.665 645.853 646.334 644.806Q650.1 638.036 652.987 630.847C660.525 611.873 659.848 592.338 651.756 573.752Z"/>
	<defs>
		<linearGradient id="gradient_23" gradientUnits="userSpaceOnUse" x1="593.32806" y1="508.37897" x2="575.27954" y2="440.82236">
			<stop offset="0" stop-color="#275577"/>
			<stop offset="1" stop-color="#1695B6"/>
		</linearGradient>
	</defs>
	<path fill="url(#gradient_23)" d="M526.381 529.072C519.009 519.991 515.037 509.162 516.328 497.376C518.288 479.488 525.121 467.684 539.004 456.639C557.996 441.53 580.511 437.602 604.163 440.334C625.953 442.85 643.721 449.54 660.13 464.274C658.04 465.554 656.195 466.706 654.517 468.536L652.26 471.199C649.656 470.439 647.029 469.247 644.458 468.331C643.401 466.146 640.043 464.937 638.649 462.291C634.25 461.197 629.874 460.284 625.385 459.64C600.303 454.015 579.707 449.169 556.41 463.841C547.26 469.603 541.461 477.542 536.197 486.808C535.064 488.802 533.351 491.265 532.733 493.455C532.523 494.199 532.525 495.003 532.484 495.767C532.274 499.616 529.17 502.563 528.389 506.427C526.886 513.853 527.03 521.545 526.381 529.072Z"/>
	<path fill="#2C315E" d="M638.649 462.291C643.976 464.051 649.158 467.183 654.517 468.536L652.26 471.199C649.656 470.439 647.029 469.247 644.458 468.331C643.401 466.146 640.043 464.937 638.649 462.291Z"/>
</svg>
